<?xml version="1.0" encoding="iso-8859-1"?>
<!-- Generator: Adobe Illustrator 16.0.0, SVG Export Plug-In . SVG Version: 6.00 Build 0)  -->
<!DOCTYPE svg PUBLIC "-//W3C//DTD SVG 1.1//EN" "http://www.w3.org/Graphics/SVG/1.1/DTD/svg11.dtd">
<svg version="1.1" id="Layer_1" xmlns="http://www.w3.org/2000/svg" xmlns:xlink="http://www.w3.org/1999/xlink" x="0px" y="0px"
	 width="22.948px" height="17.608px" viewBox="0 0 22.948 17.608" style="enable-background:new 0 0 22.948 17.608;"
	 xml:space="preserve">
<path d="M16.422,5.503c-0.491-0.073-0.829-0.527-0.754-1.015c0.075-0.491,0.527-0.83,1.017-0.755
	c0.491,0.074,0.828,0.528,0.754,1.016C17.365,5.241,16.913,5.58,16.422,5.503z M22.305,2.941c-0.717,0.341-1.508,0.604-2.3,0.754
	c-0.791-1.28-2.11-2.188-3.618-2.412c-0.263-0.037-0.529-0.075-0.792-0.075c-2.563,0-4.711,1.848-5.089,4.372
	c-0.037,0.265-0.074,0.564-0.074,0.83c-2.94-1.095-5.352-3.279-6.71-6.146C3.647,0.112,3.496,0.038,3.345,0
	C3.193,0,3.042,0.075,2.93,0.189c-0.867,1.318-1.094,2.902-0.64,4.373c-0.075,0-0.152-0.038-0.188,0
	c-0.188,0.036-0.303,0.149-0.34,0.339c-0.413,1.582,0,3.278,0.981,4.522c-0.114,0-0.189,0.037-0.264,0.113
	c-0.15,0.115-0.188,0.305-0.15,0.453c0.415,1.621,1.582,2.94,3.09,3.507c-1.583,0.565-3.241,0.79-4.938,0.679
	c-0.188,0-0.377,0.113-0.451,0.302c-0.075,0.189,0,0.378,0.151,0.527c1.696,1.284,3.694,2.111,5.805,2.452
	c0.679,0.113,1.319,0.151,1.998,0.151c5.806,0,10.933-3.885,12.477-9.461c0.114-0.303,0.189-0.641,0.227-0.943
	c0-0.074,0.036-0.15,0.036-0.227c0.037-0.112,0.037-0.226,0.075-0.339c0.868-0.904,1.583-1.922,2.111-3.053
	c0.075-0.15,0.038-0.377-0.075-0.49C22.682,2.904,22.454,2.864,22.305,2.941z"/>
</svg>
