<?xml version="1.0" encoding="iso-8859-1"?>
<!-- Generator: Adobe Illustrator 16.0.0, SVG Export Plug-In . SVG Version: 6.00 Build 0)  -->
<!DOCTYPE svg PUBLIC "-//W3C//DTD SVG 1.1//EN" "http://www.w3.org/Graphics/SVG/1.1/DTD/svg11.dtd">
<svg version="1.1" id="Layer_1" xmlns="http://www.w3.org/2000/svg" xmlns:xlink="http://www.w3.org/1999/xlink" x="0px" y="0px"
	 width="16.33px" height="22.675px" viewBox="0 0 16.33 22.675" style="enable-background:new 0 0 16.33 22.675;"
	 xml:space="preserve">
<g>
	<path d="M5.53,22.675c-1.397,0-2.792-0.531-3.858-1.595l-0.076-0.076c-2.127-2.127-2.127-5.587,0-7.713l5.028-5.028
		c1.275-1.276,3.096-1.838,4.87-1.504c0.474,0.089,0.786,0.547,0.698,1.021c-0.088,0.475-0.55,0.787-1.021,0.699
		C9.966,8.254,8.729,8.633,7.863,9.499l-5.027,5.028c-1.443,1.443-1.443,3.795,0,5.237l0.075,0.075c1.443,1.443,3.795,1.443,5.237,0
		l5.028-5.027c0.802-0.802,1.188-1.91,1.061-3.041c-0.055-0.48,0.291-0.914,0.771-0.969c0.471-0.059,0.911,0.291,0.969,0.771
		c0.188,1.662-0.38,3.293-1.562,4.475l-5.027,5.028C8.325,22.144,6.928,22.675,5.53,22.675z"/>
	<path d="M5.846,16.01c-0.312,0-0.625-0.027-0.938-0.082c-0.477-0.082-0.796-0.538-0.711-1.012c0.082-0.477,0.541-0.793,1.012-0.711
		c1.19,0.209,2.409-0.176,3.26-1.029l5.028-5.028c1.442-1.443,1.442-3.794,0-5.237L13.42,2.834
		c-0.702-0.701-1.632-1.088-2.619-1.088c-0.99,0-1.92,0.387-2.618,1.085L3.154,7.859C2.344,8.67,1.957,9.788,2.098,10.928
		c0.058,0.479-0.283,0.914-0.763,0.975C0.857,11.96,0.42,11.619,0.359,11.14C0.156,9.463,0.724,7.816,1.918,6.625l5.027-5.027
		C7.976,0.567,9.346,0,10.804,0s2.825,0.567,3.855,1.598l0.076,0.076c2.126,2.126,2.126,5.586,0,7.713l-5.028,5.027
		C8.674,15.441,7.28,16.01,5.846,16.01z"/>
</g>
</svg>
