<?xml version="1.0" encoding="iso-8859-1"?>
<!-- Generator: Adobe Illustrator 16.0.0, SVG Export Plug-In . SVG Version: 6.00 Build 0)  -->
<!DOCTYPE svg PUBLIC "-//W3C//DTD SVG 1.1//EN" "http://www.w3.org/Graphics/SVG/1.1/DTD/svg11.dtd">
<svg version="1.1" id="Layer_1" xmlns="http://www.w3.org/2000/svg" xmlns:xlink="http://www.w3.org/1999/xlink" x="0px" y="0px"
	 width="32.894px" height="32.894px" viewBox="0 0 32.894 32.894" style="enable-background:new 0 0 32.894 32.894;"
	 xml:space="preserve">
<g>
	<polygon points="9.21,0 0,0 0,9.21 3.618,9.21 3.618,3.619 9.21,3.619 	"/>
	<polygon points="9.21,32.894 0,32.894 0,23.683 3.618,23.683 3.618,29.273 9.21,29.273 	"/>
	<polygon points="23.684,0 32.894,0 32.894,9.21 29.275,9.21 29.275,3.619 23.684,3.619 	"/>
	<polygon points="23.684,32.894 32.894,32.894 32.894,23.683 29.275,23.683 29.275,29.273 23.684,29.273 	"/>
	<polygon points="6.487,26.383 6.487,23.748 23.719,6.512 26.407,6.512 26.407,9.146 9.175,26.383 	"/>
	<polygon points="26.407,26.383 26.407,23.748 9.175,6.512 6.487,6.512 6.487,9.146 23.719,26.383 	"/>
</g>
</svg>
