<?xml version="1.0" encoding="iso-8859-1"?>
<!-- Generator: Adobe Illustrator 16.0.0, SVG Export Plug-In . SVG Version: 6.00 Build 0)  -->
<!DOCTYPE svg PUBLIC "-//W3C//DTD SVG 1.1//EN" "http://www.w3.org/Graphics/SVG/1.1/DTD/svg11.dtd">
<svg version="1.1" id="Layer_1" xmlns="http://www.w3.org/2000/svg" xmlns:xlink="http://www.w3.org/1999/xlink" x="0px" y="0px"
	 width="17.323px" height="14.916px" viewBox="0 0 17.323 14.916" style="enable-background:new 0 0 17.323 14.916;"
	 xml:space="preserve">
<g>
	<path style="fill:#57C9E7;" d="M2.558,4.199c-0.838,0-1.52,0.682-1.52,1.519v4.021c0,0.838,0.681,1.52,1.52,1.52l0.655,0.015
		c0.283,0.007,0.508,0.237,0.508,0.521v1.619C3.718,13.519,3.74,13.72,3.83,13.812c0.015,0.017,0.061,0.063,0.21,0.063v0.52
		l0.001-0.52c0.299-0.002,0.581-0.307,0.768-0.506l0.096-0.104l1.792-1.834c0.098-0.101,0.231-0.156,0.372-0.156h4.542
		c0.838,0,1.521-0.688,1.521-1.536V5.718c0-0.837-0.682-1.519-1.521-1.519H2.558z M4.045,14.916c-0.002,0-0.002,0-0.004,0
		c-0.495,0-0.799-0.211-0.967-0.391c-0.417-0.44-0.395-1.069-0.39-1.139l-0.001-1.084l-0.136-0.004C1.147,12.299,0,11.15,0,9.741
		V5.718c0-1.411,1.147-2.559,2.559-2.559h9.055c1.411,0,2.559,1.149,2.559,2.559v4.021c0,1.42-1.148,2.574-2.559,2.574H7.29
		l-1.716,1.761C5.323,14.347,4.798,14.913,4.045,14.916z"/>
	<path style="fill:#57C9E7;" d="M15.048,8.014c-0.287,0-0.52-0.232-0.52-0.519c0-0.288,0.233-0.521,0.52-0.521
		c0.681,0,1.235-0.555,1.235-1.236v-2.77c0-1.352-0.576-1.928-1.928-1.928H7.251c-0.681,0-1.236,0.555-1.236,1.236
		c0,0.285-0.233,0.518-0.519,0.518c-0.287,0-0.521-0.232-0.521-0.518C4.976,1.021,5.997,0,7.251,0h7.104
		c1.941,0,2.968,1.027,2.968,2.969v2.77C17.323,6.994,16.303,8.014,15.048,8.014z"/>
	<path style="fill:#57C9E7;" d="M9.793,7.379h-6.15c-0.286,0-0.52-0.233-0.52-0.52c0-0.287,0.234-0.52,0.52-0.52h6.15
		c0.287,0,0.52,0.232,0.52,0.52C10.313,7.146,10.082,7.379,9.793,7.379z"/>
	<path style="fill:#57C9E7;" d="M7.087,9.631H3.643c-0.286,0-0.52-0.232-0.52-0.52c0-0.285,0.234-0.52,0.52-0.52h3.444
		c0.286,0,0.52,0.234,0.52,0.52C7.606,9.398,7.373,9.631,7.087,9.631z"/>
</g>
</svg>
