<?xml version="1.0" encoding="iso-8859-1"?>
<!-- Generator: Adobe Illustrator 16.0.0, SVG Export Plug-In . SVG Version: 6.00 Build 0)  -->
<!DOCTYPE svg PUBLIC "-//W3C//DTD SVG 1.1//EN" "http://www.w3.org/Graphics/SVG/1.1/DTD/svg11.dtd">
<svg version="1.1" id="Layer_1" xmlns="http://www.w3.org/2000/svg" xmlns:xlink="http://www.w3.org/1999/xlink" x="0px" y="0px"
	 width="18.97px" height="16.521px" viewBox="0 0 18.97 16.521" style="enable-background:new 0 0 18.97 16.521;"
	 xml:space="preserve">
<path style="fill:#CDCCCC;" d="M12.162,0.003c-0.044-0.012-0.069,0.016-0.104,0.025c-0.015,0.006-0.038-0.01-0.051,0
	c-0.114-0.016-0.215-0.015-0.309,0c-0.096,0.016-0.18,0.062-0.259,0.103c-0.615,0.325-0.744,1.388-0.954,2.113
	c-0.567,1.979-2.15,3.81-4.122,4.304C5.888,6.568,5.425,6.568,4.947,6.572V6.213c0-0.246-0.184-0.412-0.414-0.412H0v9.895h4.533
	c0.229,0,0.414-0.247,0.414-0.413V7.475c0.273-0.003,0.55-0.017,0.823-0.024v7.42c0.23,0.006,0.467-0.011,0.697,0
	c1.232,0.246,2.14,1.33,3.399,1.494c1.41,0.247,2.831,0.071,4.253,0.156c1.035-0.085,2.308,0.081,3.039-0.826
	c0.314-0.742,0.036-1.731,0.98-2.062c0.85-0.574-0.189-1.653,0.232-2.396c0.545-0.577,0.889-1.48,0.259-2.14
	c-0.788-0.741,0.282-1.887-0.619-2.628c-0.141-0.136-0.301-0.212-0.464-0.282c-0.164-0.071-0.338-0.129-0.517-0.154
	c-0.016-0.003-0.033-0.025-0.05-0.025c-0.189-0.037-0.376-0.054-0.542-0.054c-0.788-0.059-1.58-0.044-2.371-0.026
	c-0.323-0.01-0.657-0.018-0.979-0.051c-0.629-0.496,0.149-1.402,0.129-2.06c0.114-0.907,0.195-1.882-0.053-2.708
	c-0.135-0.396-0.401-0.84-0.799-1.005c-0.037-0.024-0.065-0.036-0.103-0.052C12.228,0.034,12.193,0.009,12.162,0V0.003z"/>
</svg>
