<?xml version="1.0" encoding="iso-8859-1"?>
<!-- Generator: Adobe Illustrator 16.0.0, SVG Export Plug-In . SVG Version: 6.00 Build 0)  -->
<!DOCTYPE svg PUBLIC "-//W3C//DTD SVG 1.1//EN" "http://www.w3.org/Graphics/SVG/1.1/DTD/svg11.dtd">
<svg version="1.1" id="Layer_1" xmlns="http://www.w3.org/2000/svg" xmlns:xlink="http://www.w3.org/1999/xlink" x="0px" y="0px"
	 width="18.333px" height="15.554px" viewBox="0 0 18.333 15.554" style="enable-background:new 0 0 18.333 15.554;"
	 xml:space="preserve">
<g>
	<path style="fill:#CDCCCC;" d="M12.784,15.554H1.862C0.835,15.554,0,14.676,0,13.596V3.254c0-1.079,0.835-1.957,1.862-1.957h10.366
		l-4.672,1.98H1.862l0.04,10.318l10.88-0.023l-0.042-1.395l1.905-1.474v2.892C14.646,14.676,13.811,15.554,12.784,15.554z"/>
	<path style="fill:#CDCCCC;" d="M12.713,10.6L12.7,7.475c-4.448-0.028-7.771,2.586-7.771,2.586s0.526-5.782,7.784-7.208V0
		l5.62,5.305l-2.732,2.57L12.713,10.6z"/>
</g>
</svg>
