<?xml version="1.0" encoding="iso-8859-1"?>
<!-- Generator: Adobe Illustrator 16.0.0, SVG Export Plug-In . SVG Version: 6.00 Build 0)  -->
<!DOCTYPE svg PUBLIC "-//W3C//DTD SVG 1.1//EN" "http://www.w3.org/Graphics/SVG/1.1/DTD/svg11.dtd">
<svg version="1.1" id="Layer_1" xmlns="http://www.w3.org/2000/svg" xmlns:xlink="http://www.w3.org/1999/xlink" x="0px" y="0px"
	 width="13.611px" height="11.854px" viewBox="0 0 13.611 11.854" style="enable-background:new 0 0 13.611 11.854;"
	 xml:space="preserve">
<path style="fill:#F79226;" d="M8.727,0.002c-0.031-0.008-0.05,0.012-0.074,0.019c-0.011,0.004-0.027-0.007-0.036,0
	c-0.082-0.012-0.154-0.011-0.222,0C8.326,0.031,8.266,0.065,8.209,0.094C7.768,0.327,7.675,1.09,7.524,1.61
	C7.117,3.03,5.981,4.344,4.566,4.698C4.225,4.713,3.893,4.713,3.55,4.716V4.458c0-0.177-0.132-0.296-0.297-0.296H0v7.1h3.253
	c0.164,0,0.297-0.178,0.297-0.296V5.363c0.196-0.002,0.395-0.012,0.591-0.018v5.324c0.165,0.004,0.335-0.008,0.5,0
	c0.885,0.177,1.535,0.954,2.439,1.072c1.012,0.177,2.031,0.051,3.052,0.111c0.742-0.061,1.655,0.059,2.181-0.593
	c0.226-0.532,0.025-1.242,0.703-1.479c0.609-0.412-0.136-1.187,0.167-1.719C13.573,7.648,13.82,7,13.368,6.527
	c-0.565-0.532,0.202-1.354-0.444-1.886c-0.101-0.098-0.216-0.152-0.333-0.203s-0.242-0.092-0.37-0.11
	c-0.012-0.002-0.024-0.018-0.036-0.019c-0.136-0.026-0.27-0.038-0.389-0.038c-0.565-0.042-1.134-0.031-1.701-0.019
	C9.862,4.245,9.623,4.24,9.392,4.216C8.94,3.86,9.499,3.21,9.484,2.738c0.082-0.651,0.14-1.351-0.038-1.943
	C9.35,0.511,9.158,0.192,8.873,0.074C8.847,0.057,8.826,0.049,8.8,0.037C8.773,0.024,8.749,0.006,8.727,0V0.002z"/>
</svg>
