<?xml version="1.0" encoding="iso-8859-1"?>
<!-- Generator: Adobe Illustrator 16.0.0, SVG Export Plug-In . SVG Version: 6.00 Build 0)  -->
<!DOCTYPE svg PUBLIC "-//W3C//DTD SVG 1.1//EN" "http://www.w3.org/Graphics/SVG/1.1/DTD/svg11.dtd">
<svg version="1.1" id="Layer_1" xmlns="http://www.w3.org/2000/svg" xmlns:xlink="http://www.w3.org/1999/xlink" x="0px" y="0px"
	 width="29.723px" height="29.724px" viewBox="0 0 29.723 29.724" style="enable-background:new 0 0 29.723 29.724;"
	 xml:space="preserve">
<g>
	<path style="fill-rule:evenodd;clip-rule:evenodd;" d="M27.865,26.007c0,1.024-0.834,1.858-1.857,1.858H3.715
		c-1.024,0-1.857-0.833-1.857-1.858V7.431c0-0.513,0.417-0.929,0.929-0.929h0.929v18.577c0,0.515,0.416,0.928,0.93,0.928
		c0.514,0,0.928-0.414,0.928-0.928V2.786c0-0.512,0.417-0.928,0.929-0.928h20.435c0.513,0,0.929,0.416,0.929,0.928V26.007z
		 M26.937,0H6.502c-1.54,0-2.787,1.246-2.787,2.786v1.858H2.786C1.247,4.644,0,5.89,0,7.431v18.576c0,2.053,1.664,3.717,3.715,3.717
		h22.293c2.051,0,3.715-1.664,3.715-3.717V2.786C29.723,1.246,28.477,0,26.937,0z"/>
	<path style="fill-rule:evenodd;clip-rule:evenodd;" d="M18.111,12.08h7.431c0.257,0,0.464-0.207,0.464-0.464
		c0-0.256-0.208-0.464-0.464-0.464h-7.431c-0.255,0-0.464,0.208-0.464,0.464C17.646,11.873,17.855,12.08,18.111,12.08z"/>
	<path style="fill-rule:evenodd;clip-rule:evenodd;" d="M18.111,9.293h7.431c0.257,0,0.464-0.208,0.464-0.464
		s-0.208-0.465-0.464-0.465h-7.431c-0.255,0-0.464,0.208-0.464,0.465S17.855,9.293,18.111,9.293z"/>
	<path style="fill-rule:evenodd;clip-rule:evenodd;" d="M18.111,6.506h7.431c0.257,0,0.464-0.207,0.464-0.464
		c0-0.256-0.208-0.464-0.464-0.464h-7.431c-0.255,0-0.464,0.208-0.464,0.464C17.646,6.299,17.855,6.506,18.111,6.506z"/>
	<path style="fill-rule:evenodd;clip-rule:evenodd;" d="M15.326,25.082H7.895c-0.257,0-0.465,0.209-0.465,0.464
		c0,0.258,0.208,0.465,0.465,0.465h7.431c0.256,0,0.465-0.208,0.465-0.465C15.791,25.292,15.583,25.082,15.326,25.082z"/>
	<path style="fill-rule:evenodd;clip-rule:evenodd;" d="M15.326,22.296H7.895c-0.257,0-0.465,0.208-0.465,0.464
		c0,0.257,0.208,0.464,0.465,0.464h7.431c0.256,0,0.465-0.207,0.465-0.464C15.791,22.504,15.583,22.296,15.326,22.296z"/>
	<path style="fill-rule:evenodd;clip-rule:evenodd;" d="M15.326,19.51H7.895c-0.257,0-0.465,0.208-0.465,0.464
		c0,0.258,0.208,0.464,0.465,0.464h7.431c0.256,0,0.465-0.207,0.465-0.464C15.791,19.718,15.583,19.51,15.326,19.51z"/>
	<path style="fill-rule:evenodd;clip-rule:evenodd;" d="M25.544,25.082h-7.432c-0.257,0-0.464,0.209-0.464,0.464
		c0,0.258,0.208,0.465,0.464,0.465h7.432c0.255,0,0.464-0.208,0.464-0.465C26.008,25.292,25.799,25.082,25.544,25.082z"/>
	<path style="fill-rule:evenodd;clip-rule:evenodd;" d="M25.544,22.296h-7.432c-0.257,0-0.464,0.208-0.464,0.464
		c0,0.257,0.208,0.464,0.464,0.464h7.432c0.255,0,0.464-0.207,0.464-0.464C26.008,22.504,25.799,22.296,25.544,22.296z"/>
	<path style="fill-rule:evenodd;clip-rule:evenodd;" d="M25.544,19.51h-7.432c-0.257,0-0.464,0.208-0.464,0.464
		c0,0.258,0.208,0.464,0.464,0.464h7.432c0.255,0,0.464-0.207,0.464-0.464C26.008,19.718,25.799,19.51,25.544,19.51z"/>
	<path style="fill-rule:evenodd;clip-rule:evenodd;" d="M25.544,13.936H7.895c-0.257,0-0.465,0.208-0.465,0.465
		c0,0.256,0.208,0.464,0.465,0.464h17.649c0.255,0,0.464-0.208,0.464-0.464C26.008,14.144,25.799,13.936,25.544,13.936z"/>
	<path style="fill-rule:evenodd;clip-rule:evenodd;" d="M25.544,16.723H7.895c-0.257,0-0.465,0.208-0.465,0.464
		c0,0.257,0.208,0.464,0.465,0.464h17.649c0.255,0,0.464-0.207,0.464-0.464C26.008,16.932,25.799,16.723,25.544,16.723z"/>
	<path style="fill-rule:evenodd;clip-rule:evenodd;" d="M9.289,5.572h4.644v4.645H9.289V5.572z M8.359,12.075h6.502
		c0.514,0,0.929-0.414,0.929-0.929V4.648c0-0.515-0.416-0.929-0.929-0.929H8.359c-0.514,0-0.929,0.414-0.929,0.929v6.498
		C7.43,11.659,7.845,12.075,8.359,12.075z"/>
</g>
</svg>
