<?xml version="1.0" encoding="iso-8859-1"?>
<!-- Generator: Adobe Illustrator 16.0.0, SVG Export Plug-In . SVG Version: 6.00 Build 0)  -->
<!DOCTYPE svg PUBLIC "-//W3C//DTD SVG 1.1//EN" "http://www.w3.org/Graphics/SVG/1.1/DTD/svg11.dtd">
<svg version="1.1" id="Layer_1" xmlns="http://www.w3.org/2000/svg" xmlns:xlink="http://www.w3.org/1999/xlink" x="0px" y="0px"
	 width="30.001px" height="30.001px" viewBox="0 0 30.001 30.001" style="enable-background:new 0 0 30.001 30.001;"
	 xml:space="preserve">
<g>
	<path style="fill-rule:evenodd;clip-rule:evenodd;" d="M28.125,26.25c0,1.033-0.842,1.875-1.875,1.875H3.75
		c-1.034,0-1.875-0.841-1.875-1.875V7.5c0-0.517,0.42-0.938,0.937-0.938H3.75v18.75c0,0.519,0.419,0.938,0.938,0.938
		c0.519,0,0.937-0.418,0.937-0.938v-22.5c0-0.518,0.42-0.938,0.938-0.938h20.626c0.517,0,0.937,0.42,0.937,0.938V26.25z M27.188,0
		H6.562C5.009,0,3.75,1.258,3.75,2.812v1.875H2.812C1.259,4.688,0,5.946,0,7.5v18.75c0,2.071,1.68,3.75,3.75,3.75h22.501
		c2.07,0,3.75-1.68,3.75-3.75V2.812C30.001,1.258,28.742,0,27.188,0z"/>
	<path style="fill-rule:evenodd;clip-rule:evenodd;" d="M18.28,12.192h7.5c0.259,0,0.469-0.209,0.469-0.469
		c0-0.259-0.209-0.469-0.469-0.469h-7.5c-0.258,0-0.469,0.209-0.469,0.469C17.812,11.983,18.022,12.192,18.28,12.192z"/>
	<path style="fill-rule:evenodd;clip-rule:evenodd;" d="M18.28,9.38h7.5c0.259,0,0.469-0.209,0.469-0.469
		c0-0.259-0.209-0.469-0.469-0.469h-7.5c-0.258,0-0.469,0.209-0.469,0.469C17.812,9.171,18.022,9.38,18.28,9.38z"/>
	<path style="fill-rule:evenodd;clip-rule:evenodd;" d="M18.28,6.567h7.5c0.259,0,0.469-0.209,0.469-0.469
		c0-0.259-0.209-0.469-0.469-0.469h-7.5c-0.258,0-0.469,0.209-0.469,0.469C17.812,6.358,18.022,6.567,18.28,6.567z"/>
	<path style="fill-rule:evenodd;clip-rule:evenodd;" d="M15.469,25.316h-7.5c-0.26,0-0.469,0.211-0.469,0.469
		c0,0.259,0.209,0.469,0.469,0.469h7.5c0.258,0,0.469-0.209,0.469-0.469C15.938,25.527,15.729,25.316,15.469,25.316z"/>
	<path style="fill-rule:evenodd;clip-rule:evenodd;" d="M15.469,22.504h-7.5c-0.26,0-0.469,0.211-0.469,0.469
		c0,0.259,0.209,0.469,0.469,0.469h7.5c0.258,0,0.469-0.209,0.469-0.469C15.938,22.715,15.729,22.504,15.469,22.504z"/>
	<path style="fill-rule:evenodd;clip-rule:evenodd;" d="M15.469,19.691h-7.5c-0.26,0-0.469,0.21-0.469,0.469
		c0,0.259,0.209,0.469,0.469,0.469h7.5c0.258,0,0.469-0.209,0.469-0.469C15.938,19.902,15.729,19.691,15.469,19.691z"/>
	<path style="fill-rule:evenodd;clip-rule:evenodd;" d="M25.782,25.316h-7.5c-0.259,0-0.469,0.211-0.469,0.469
		c0,0.259,0.209,0.469,0.469,0.469h7.5c0.258,0,0.469-0.209,0.469-0.469C26.251,25.527,26.04,25.316,25.782,25.316z"/>
	<path style="fill-rule:evenodd;clip-rule:evenodd;" d="M25.782,22.504h-7.5c-0.259,0-0.469,0.211-0.469,0.469
		c0,0.259,0.209,0.469,0.469,0.469h7.5c0.258,0,0.469-0.209,0.469-0.469C26.251,22.715,26.04,22.504,25.782,22.504z"/>
	<path style="fill-rule:evenodd;clip-rule:evenodd;" d="M25.782,19.691h-7.5c-0.259,0-0.469,0.21-0.469,0.469
		c0,0.259,0.209,0.469,0.469,0.469h7.5c0.258,0,0.469-0.209,0.469-0.469C26.251,19.902,26.04,19.691,25.782,19.691z"/>
	<path style="fill-rule:evenodd;clip-rule:evenodd;" d="M25.782,14.066H7.969c-0.26,0-0.469,0.209-0.469,0.469
		c0,0.259,0.209,0.469,0.469,0.469h17.813c0.258,0,0.469-0.21,0.469-0.469C26.251,14.275,26.04,14.066,25.782,14.066z"/>
	<path style="fill-rule:evenodd;clip-rule:evenodd;" d="M25.782,16.879H7.969c-0.26,0-0.469,0.21-0.469,0.469
		c0,0.259,0.209,0.469,0.469,0.469h17.813c0.258,0,0.469-0.209,0.469-0.469C26.251,17.089,26.04,16.879,25.782,16.879z"/>
	<path style="fill-rule:evenodd;clip-rule:evenodd;" d="M9.375,5.624h4.687v4.688H9.375V5.624z M8.438,12.188H15
		c0.519,0,0.938-0.418,0.938-0.938V4.691c0-0.519-0.419-0.938-0.938-0.938H8.438C7.919,3.753,7.5,4.172,7.5,4.691v6.559
		C7.5,11.767,7.919,12.188,8.438,12.188z"/>
</g>
</svg>
