<?xml version="1.0" encoding="iso-8859-1"?>
<!-- Generator: Adobe Illustrator 16.0.0, SVG Export Plug-In . SVG Version: 6.00 Build 0)  -->
<!DOCTYPE svg PUBLIC "-//W3C//DTD SVG 1.1//EN" "http://www.w3.org/Graphics/SVG/1.1/DTD/svg11.dtd">
<svg version="1.1" id="Layer_1" xmlns="http://www.w3.org/2000/svg" xmlns:xlink="http://www.w3.org/1999/xlink" x="0px" y="0px"
	 width="30.452px" height="30.444px" viewBox="0 0 30.452 30.444" style="enable-background:new 0 0 30.452 30.444;"
	 xml:space="preserve">
<g>
	<path d="M29.079,27.694H1.375C0.6,27.694,0,28.329,0,29.069c0,0.773,0.635,1.375,1.375,1.375h27.703
		c0.774,0,1.375-0.635,1.375-1.375C30.452,28.292,29.818,27.694,29.079,27.694z"/>
	<path d="M6.205,11.622h4.159V24.1H6.205V11.622z M17.307,11.622V24.1h-4.16V11.622H17.307z M24.214,11.622V24.1h-4.16V11.622
		H24.214z M3.102,24.063c-0.774,0-1.375,0.635-1.375,1.375c0,0.773,0.635,1.375,1.375,1.375h24.213c0.774,0,1.375-0.637,1.375-1.375
		c0-0.775-0.635-1.375-1.375-1.375h-0.353V11.622h0.353c0.387,0,0.705-0.316,0.705-0.705c0-0.387-0.318-0.705-0.705-0.705H3.102
		c-0.387,0-0.705,0.318-0.705,0.705c0,0.389,0.318,0.705,0.705,0.705h0.353V24.1L3.102,24.063z"/>
	<path d="M1.375,8.979h27.703c0.774,0,1.375-0.635,1.375-1.375c0-0.599-0.387-1.127-0.951-1.303L15.755,0.132
		c-0.353-0.176-0.774-0.176-1.127,0L0.811,6.335C0.213,6.618-0.105,7.251,0.037,7.887C0.141,8.52,0.707,8.979,1.375,8.979z"/>
</g>
</svg>
