<?xml version="1.0" encoding="iso-8859-1"?>
<!-- Generator: Adobe Illustrator 16.0.0, SVG Export Plug-In . SVG Version: 6.00 Build 0)  -->
<!DOCTYPE svg PUBLIC "-//W3C//DTD SVG 1.1//EN" "http://www.w3.org/Graphics/SVG/1.1/DTD/svg11.dtd">
<svg version="1.1" id="Layer_1" xmlns="http://www.w3.org/2000/svg" xmlns:xlink="http://www.w3.org/1999/xlink" x="0px" y="0px"
	 width="33.907px" height="27.088px" viewBox="0 0 33.907 27.088" style="enable-background:new 0 0 33.907 27.088;"
	 xml:space="preserve">
<path d="M24.39,8.64H2.536v7.881l4.686-4.686c0.583-0.584,1.532-0.584,2.116,0l5.715,5.715L12.3,20.302
	c-0.217,0.217-0.217,0.565,0,0.782c0.217,0.218,0.565,0.218,0.782,0l5.155-5.154c0.584-0.584,1.532-0.584,2.115,0l4.041,4.04V8.64
	H24.39z M26.926,7.599v17.994c0,0.825-0.67,1.495-1.495,1.495H1.495C0.669,27.088,0,26.418,0,25.593V7.599
	c0-0.826,0.669-1.495,1.495-1.495h23.936C26.256,6.101,26.926,6.772,26.926,7.599z M21.051,14.167c1.209,0,2.189-0.98,2.189-2.189
	s-0.98-2.189-2.189-2.189s-2.189,0.98-2.189,2.189S19.842,14.167,21.051,14.167z M33.907,1.495v17.994
	c0,0.826-0.668,1.496-1.494,1.496H28.62V7.599c0-1.759-1.432-3.188-3.188-3.188H6.981V1.495C6.981,0.67,7.65,0,8.476,0h23.937
	C33.239-0.002,33.907,0.67,33.907,1.495z"/>
</svg>
