<?xml version="1.0" encoding="utf-8"?>
<!-- Generator: Adobe Illustrator 19.1.0, SVG Export Plug-In . SVG Version: 6.00 Build 0)  -->
<svg version="1.1" id="Camada_1" xmlns="http://www.w3.org/2000/svg" xmlns:xlink="http://www.w3.org/1999/xlink" x="0px" y="0px"
	 viewBox="0 0 24.1 18.5" style="enable-background:new 0 0 24.1 18.5;" xml:space="preserve">
<path d="M17.3,5.8c-0.5-0.1-0.9-0.6-0.8-1.1c0.1-0.5,0.6-0.9,1.1-0.8C18,4,18.4,4.5,18.3,5C18.2,5.5,17.8,5.9,17.3,5.8z M23.4,3.1
	c-0.8,0.4-1.6,0.6-2.4,0.8c-0.8-1.3-2.2-2.3-3.8-2.5c-0.3,0-0.6-0.1-0.8-0.1c-2.7,0-4.9,1.9-5.3,4.6C11,6.1,11,6.5,11,6.7
	C7.9,5.6,5.3,3.3,3.9,0.3C3.8,0.1,3.7,0,3.5,0C3.4,0,3.2,0.1,3.1,0.2c-0.9,1.4-1.1,3-0.7,4.6c-0.1,0-0.2,0-0.2,0
	C2,4.8,1.9,4.9,1.9,5.1c-0.4,1.7,0,3.4,1,4.8c-0.1,0-0.2,0-0.3,0.1c-0.2,0.1-0.2,0.3-0.2,0.5c0.4,1.7,1.7,3.1,3.2,3.7
	C4,14.8,2.3,15,0.5,14.9c-0.2,0-0.4,0.1-0.5,0.3c-0.1,0.2,0,0.4,0.2,0.6C2,17.1,4.1,18,6.3,18.3c0.7,0.1,1.4,0.2,2.1,0.2
	c6.1,0,11.5-4.1,13.1-9.9c0.1-0.3,0.2-0.7,0.2-1c0-0.1,0-0.2,0-0.2c0-0.1,0-0.2,0.1-0.4c0.9-0.9,1.7-2,2.2-3.2
	c0.1-0.2,0-0.4-0.1-0.5C23.8,3.1,23.6,3,23.4,3.1z"/>
</svg>
