<?xml version="1.0" encoding="utf-8"?>
<!-- Generator: Adobe Illustrator 19.1.0, SVG Export Plug-In . SVG Version: 6.00 Build 0)  -->
<svg version="1.1" id="Camada_1" xmlns="http://www.w3.org/2000/svg" xmlns:xlink="http://www.w3.org/1999/xlink" x="0px" y="0px"
	 viewBox="0 0 24.6 21.4" style="enable-background:new 0 0 24.6 21.4;" xml:space="preserve">
<g>
	<path d="M19.9,1.5c0,0.8-0.8,1.5-1.7,1.5H1.7C0.8,2.9,0,2.3,0,1.5C0,0.7,0.8,0,1.7,0h16.5C19.1,0,19.9,0.7,19.9,1.5z"/>
	<path d="M13.8,19.9c0,0.8-0.8,1.5-1.7,1.5H1.7c-0.9,0-1.7-0.7-1.7-1.5c0-0.8,0.8-1.5,1.7-1.5H12C13,18.4,13.8,19.1,13.8,19.9z"/>
	<path d="M24.6,7.6c0,0.9-0.8,1.6-1.7,1.6H1.7C0.8,9.2,0,8.5,0,7.6C0,6.7,0.8,6,1.7,6h21.1C23.8,6,24.6,6.7,24.6,7.6z"/>
	<path d="M24.6,13.8c0,0.8-0.8,1.5-1.7,1.5H1.7c-0.9,0-1.7-0.7-1.7-1.5c0-0.8,0.8-1.5,1.7-1.5h21.1C23.8,12.3,24.6,13,24.6,13.8z"/>
</g>
</svg>
