<?xml version="1.0" encoding="iso-8859-1"?>
<!-- Generator: Adobe Illustrator 16.0.0, SVG Export Plug-In . SVG Version: 6.00 Build 0)  -->
<!DOCTYPE svg PUBLIC "-//W3C//DTD SVG 1.1//EN" "http://www.w3.org/Graphics/SVG/1.1/DTD/svg11.dtd">
<svg version="1.1" id="Layer_1" xmlns="http://www.w3.org/2000/svg" xmlns:xlink="http://www.w3.org/1999/xlink" x="0px" y="0px"
	 width="24.725px" height="35.782px" viewBox="0 0 24.725 35.782" style="enable-background:new 0 0 24.725 35.782;"
	 xml:space="preserve">
<g>
	<path d="M17.893,18.814l-4.606-4.607c-0.235-0.235-0.561-0.382-0.923-0.382c-0.359,0-0.687,0.146-0.922,0.382l-4.607,4.607
		L3.05,15.029l6.906-8.631h4.819l6.902,8.631L17.893,18.814z M24.702,14.892c-0.005-0.024-0.014-0.05-0.021-0.074
		c-0.014-0.052-0.027-0.102-0.045-0.151c-0.012-0.029-0.025-0.057-0.039-0.084c-0.02-0.045-0.043-0.088-0.07-0.131
		c-0.016-0.027-0.034-0.053-0.052-0.079c-0.013-0.019-0.024-0.041-0.038-0.059L13.381,0.488C13.132,0.18,12.759,0,12.363,0
		s-0.769,0.178-1.017,0.488L0.287,14.311c-0.016,0.019-0.025,0.039-0.038,0.059c-0.019,0.027-0.036,0.053-0.052,0.08
		c-0.027,0.043-0.047,0.086-0.07,0.131c-0.014,0.027-0.027,0.057-0.039,0.084c-0.018,0.049-0.032,0.099-0.045,0.15
		c-0.007,0.025-0.016,0.051-0.021,0.075C0.009,14.967,0,15.046,0,15.125v19.354c0,0.719,0.583,1.301,1.302,1.301
		c0.719,0,1.302-0.582,1.302-1.301V18.27l3.307,3.307c0.508,0.509,1.332,0.509,1.84,0l3.31-3.307V34.48
		c0,0.719,0.583,1.302,1.302,1.302s1.302-0.583,1.302-1.302V18.27l3.307,3.307c0.256,0.256,0.588,0.383,0.92,0.383
		c0.333,0,0.667-0.127,0.92-0.383l3.307-3.307V34.48c0,0.719,0.583,1.302,1.302,1.302c0.719,0,1.302-0.583,1.302-1.302V15.125
		C24.725,15.046,24.718,14.969,24.702,14.892z"/>
</g>
</svg>
