<?xml version="1.0" encoding="iso-8859-1"?>
<!-- Generator: Adobe Illustrator 16.0.0, SVG Export Plug-In . SVG Version: 6.00 Build 0)  -->
<!DOCTYPE svg PUBLIC "-//W3C//DTD SVG 1.1//EN" "http://www.w3.org/Graphics/SVG/1.1/DTD/svg11.dtd">
<svg version="1.1" id="Layer_1" xmlns="http://www.w3.org/2000/svg" xmlns:xlink="http://www.w3.org/1999/xlink" x="0px" y="0px"
	 width="35px" height="35px" viewBox="0 0 35 35" style="enable-background:new 0 0 35 35;" xml:space="preserve">
<g>
	<polygon points="15.75,14.49 15.75,27.194 19.25,27.194 19.25,14.49 24.956,20.194 27.44,17.709 17.535,7.806 17.5,7.84 
		17.465,7.806 7.56,17.709 10.044,20.194 	"/>
	<path d="M17.5,1.75c8.681,0,15.75,7.069,15.75,15.75S26.181,33.25,17.5,33.25S1.75,26.181,1.75,17.5S8.819,1.75,17.5,1.75z
		 M17.5,35C27.16,35,35,27.16,35,17.5S27.16,0,17.5,0S0,7.84,0,17.5S7.84,35,17.5,35z"/>
</g>
</svg>
