<?xml version="1.0" encoding="iso-8859-1"?>
<!-- Generator: Adobe Illustrator 16.0.0, SVG Export Plug-In . SVG Version: 6.00 Build 0)  -->
<!DOCTYPE svg PUBLIC "-//W3C//DTD SVG 1.1//EN" "http://www.w3.org/Graphics/SVG/1.1/DTD/svg11.dtd">
<svg version="1.1" id="Layer_1" xmlns="http://www.w3.org/2000/svg" xmlns:xlink="http://www.w3.org/1999/xlink" x="0px" y="0px"
	 width="24.936px" height="24.937px" viewBox="0 0 24.936 24.937" style="enable-background:new 0 0 24.936 24.937;"
	 xml:space="preserve">
<g>
	<path d="M19.55,23.612H5.385c-2.238,0-4.062-1.821-4.062-4.062V9.004h5.807c1.262-1.55,3.183-2.539,5.336-2.539
		s4.076,0.989,5.338,2.539h5.807v10.547C23.611,21.791,21.79,23.612,19.55,23.612z M16.861,3.987c0-0.484,0.395-0.879,0.878-0.879
		h2.638c0.483,0,0.877,0.395,0.877,0.879v2.637c0,0.484-0.394,0.879-0.877,0.879h-2.638c-0.483,0-0.878-0.395-0.878-0.879V3.987z
		 M19.55,0H5.385C2.415,0,0,2.416,0,5.385v14.168c0,2.969,2.415,5.384,5.385,5.384h14.167c2.97,0,5.384-2.415,5.384-5.384V5.383
		C24.934,2.416,22.52,0,19.55,0z"/>
	<path d="M18.202,12.999c0,3.168-2.568,5.735-5.735,5.735c-3.166,0-5.734-2.567-5.734-5.735c0-3.166,2.568-5.735,5.734-5.735
		C15.634,7.264,18.202,9.833,18.202,12.999"/>
</g>
</svg>
