<svg id="Camada_1" data-name="Camada 1" xmlns="http://www.w3.org/2000/svg" viewBox="0 0 111 111"><defs><style>.cls-1{fill:#fff;}</style></defs><title>icones</title><path class="cls-1" d="M88.86,22.15h0A47.17,47.17,0,0,0,22.15,88.86,47.24,47.24,0,0,0,71,100.07a5.26,5.26,0,0,0-3.47-9.94,37.63,37.63,0,0,1-21.07,1A35.33,35.33,0,0,1,21,68.23a37.19,37.19,0,0,1,4.69-34A36.63,36.63,0,0,1,92.14,55.5c0,7.78-4.37,11.26-8.71,11.26s-8.62-3.41-8.7-11c-.1-8.78-5.51-16.26-13.45-18.61a19.25,19.25,0,1,0,7.2,32.56A19.24,19.24,0,0,0,70,71.52a18.49,18.49,0,0,0,26.84,0c3.8-4,5.81-9.54,5.81-16A46.87,46.87,0,0,0,88.86,22.15ZM64.21,55.5a8.71,8.71,0,1,1-17.41-.35,8.85,8.85,0,0,1,8.35-8.35h.35a8.72,8.72,0,0,1,8.7,8.71Z"/></svg>