<svg id="Camada_1" data-name="Camada 1" xmlns="http://www.w3.org/2000/svg" viewBox="0 0 111 111"><defs><style>.cls-1{fill:#fff;}</style></defs><title>icones</title><path class="cls-1" d="M5.5,88h100a8.53,8.53,0,0,1,4.5,1.29V27.71L88.88,63.08a12.69,12.69,0,0,1-17.66,3.85L51.43,54,38.87,74.09A12.56,12.56,0,0,1,28.15,80a12.72,12.72,0,0,1-3.57-.51L4.31,73.55A34.82,34.82,0,0,1,1,72.08V89.29A8.53,8.53,0,0,1,5.5,88Z"/><path class="cls-1" d="M28.15,73a5.72,5.72,0,0,1-1.61-.23L4,66.17A5.48,5.48,0,0,1,.24,59.33a5.63,5.63,0,0,1,7-3.69L25.62,61,42.76,33.63a5.61,5.61,0,0,1,3.58-2.5,5.71,5.71,0,0,1,4.32.8L76.42,48.75,100.6,10.08a5.68,5.68,0,0,1,7.72-1.82,5.44,5.44,0,0,1,1.85,7.56L82.95,59.37a5.61,5.61,0,0,1-3.58,2.5,5.72,5.72,0,0,1-4.32-.8L49.28,44.25,32.94,70.37A5.64,5.64,0,0,1,28.15,73Z"/><rect class="cls-1" y="94" width="111" height="11" rx="5.5" ry="5.5"/></svg>