<svg id="Camada_1" data-name="Camada 1" xmlns="http://www.w3.org/2000/svg" viewBox="0 0 111 111"><defs><style>.cls-1{fill:#fff;}</style></defs><title>icones</title><path class="cls-1" d="M96.7,35.73l.05,2.65C96.75,65.6,76,97,38.12,97A57.9,57.9,0,0,1,6.57,87.71a37.47,37.47,0,0,0,4.9.31,41.37,41.37,0,0,0,25.58-8.84,20.64,20.64,0,0,1-19.24-14.3,19.09,19.09,0,0,0,3.88.37,20.81,20.81,0,0,0,5.41-.72,20.6,20.6,0,0,1-16.5-20.17V44.1a20.28,20.28,0,0,0,9.29,2.56,20.57,20.57,0,0,1-9.14-17.11,20.31,20.31,0,0,1,2.81-10.37A58.4,58.4,0,0,0,56,40.69,19.74,19.74,0,0,1,55.5,36,20.62,20.62,0,0,1,91.13,21.89a41.51,41.51,0,0,0,13.07-5,20.5,20.5,0,0,1-9.08,11.39A41.48,41.48,0,0,0,107,25.05,42.4,42.4,0,0,1,96.7,35.73Zm0,0"/></svg>