<svg id="Camada_1" data-name="Camada 1" xmlns="http://www.w3.org/2000/svg" viewBox="0 0 111 111"><defs><style>.cls-1{fill:#fff;}</style></defs><title>icones</title><path class="cls-1" d="M92.39,5H18.61A13.61,13.61,0,0,0,5,18.61V92.39A13.61,13.61,0,0,0,18.61,106H55l.06-36.09H45.68a2.21,2.21,0,0,1-2.21-2.2l0-11.63a2.21,2.21,0,0,1,2.21-2.22H55V42.61c0-13,8-20.15,19.6-20.15h9.55a2.21,2.21,0,0,1,2.21,2.21v9.81a2.21,2.21,0,0,1-2.21,2.21H78.29c-6.33,0-7.55,3-7.55,7.42v9.73H84.65a2.21,2.21,0,0,1,2.2,2.47L85.46,68a2.21,2.21,0,0,1-2.2,2H70.8L70.74,106H92.39A13.61,13.61,0,0,0,106,92.39V18.61A13.61,13.61,0,0,0,92.39,5Z"/></svg>