<svg id="Camada_1" data-name="Camada 1" xmlns="http://www.w3.org/2000/svg" viewBox="0 0 111 111"><defs><style>.cls-1{fill:#fff;}</style></defs><title>icones</title><path class="cls-1" d="M62.28,75.93a5.3,5.3,0,0,1,5,5.28,5.09,5.09,0,0,1-5,5H21.06a5.09,5.09,0,0,1-5-5v-39L8.67,49.53a4.86,4.86,0,0,1-7.12,0,5.13,5.13,0,0,1,0-7.34L17.39,26.12a5.21,5.21,0,0,1,3.67-1.38,5.21,5.21,0,0,1,3.67,1.38L40.57,42.19a5.12,5.12,0,0,1,0,7.34,5.21,5.21,0,0,1-3.67,1.38,4.67,4.67,0,0,1-3.44-1.38l-7.35-7.34V75.93Zm9.05,0"/><path class="cls-1" d="M48.72,35.07a5.3,5.3,0,0,1-5-5.28,5.09,5.09,0,0,1,5-5H89.94a5.09,5.09,0,0,1,5,5v39l7.35-7.34a4.86,4.86,0,0,1,7.12,0,5.13,5.13,0,0,1,0,7.34L93.61,84.88a5.58,5.58,0,0,1-7.34,0L70.43,68.81a5.12,5.12,0,0,1,0-7.34,5.21,5.21,0,0,1,3.67-1.38,4.67,4.67,0,0,1,3.44,1.38l7.35,7.34V35.07Zm-9.05,0"/></svg>