<svg id="Camada_1" data-name="Camada 1" xmlns="http://www.w3.org/2000/svg" viewBox="0 0 111 111"><defs><style>.cls-1{fill:#fff;}</style></defs><title>icones</title><path class="cls-1" d="M30.7,28.63h0a5,5,0,0,1,7,.19L62.15,56.69a5,5,0,0,1-.19,7h0a5,5,0,0,1-7-.19L30.51,35.64A5,5,0,0,1,30.7,28.63Z"/><path class="cls-1" d="M76.59,46h0a5,5,0,0,1-.19,7L62.63,63.4a5,5,0,0,1-7-.19h0a5,5,0,0,1,.19-7L69.59,45.85A5,5,0,0,1,76.59,46Z"/><path class="cls-1" d="M57.5,108A52.5,52.5,0,1,1,110,55.5,52.56,52.56,0,0,1,57.5,108Zm0-95A42.5,42.5,0,1,0,100,55.5,42.55,42.55,0,0,0,57.5,13Z"/></svg>