<svg xmlns="http://www.w3.org/2000/svg" viewBox="0 0 118.5 117.5">
  <circle class="cls-1" cx="58.5" cy="58" r="55.5"/>
  <path class="cls-2"
        d="M69.3,29.54A12.33,12.33,0,0,1,81.61,41.85V82.68a3.78,3.78,0,0,1-3.78,3.78H43.18a3.78,3.78,0,0,1-3.78-3.78V33.32a3.78,3.78,0,0,1,3.78-3.78H69.3m0-7H39.67a7.32,7.32,0,0,0-7.32,7.32v54.3a9.38,9.38,0,0,0,9.38,9.38H79.26a9.38,9.38,0,0,0,9.38-9.38V41.85A19.35,19.35,0,0,0,69.3,22.5Z"/>
  <path class="cls-2"
        d="M71.37,38.78V26.14a3,3,0,0,0-3-3h-1a3,3,0,0,0-3,3V41h0a6.4,6.4,0,0,0,6.4,6.4H85a3,3,0,0,0,3-3v-1a3,3,0,0,0-3-3H73A1.63,1.63,0,0,1,71.37,38.78Z"/>
</svg>
