<svg id="Camada_1" data-name="Camada 1" xmlns="http://www.w3.org/2000/svg" viewBox="0 0 111 110.75"><defs><style>.cls-1{fill:#fff;}</style></defs><title>icones</title><path class="cls-1" d="M99.31,35.68V65.82c0,25.64-21,46.3-46.58,44.85a44.12,44.12,0,0,1-41.55-44V34.53c0-19.76,16.17-35.69,35.9-34.47A33.82,33.82,0,0,1,78.75,33.78V66.07c0,13.84-11.33,25-25.14,24.05A23.53,23.53,0,0,1,31.75,66.69v-31a5.5,5.5,0,0,1,5.5-5.5h0a5.5,5.5,0,0,1,5.5,5.5v30.6A12.77,12.77,0,0,0,54.08,79.13,12.51,12.51,0,0,0,67.75,66.69V34.38C67.75,22,58.15,11.46,45.8,11A22.8,22.8,0,0,0,22.19,33.78V65.95c0,19.34,15.83,34.93,35.13,33.74a33.11,33.11,0,0,0,31-33v-31a5.5,5.5,0,0,1,5.5-5.5h0A5.5,5.5,0,0,1,99.31,35.68Z"/></svg>