<svg id="Camada_1" data-name="Camada 1" xmlns="http://www.w3.org/2000/svg" viewBox="0 0 111 111"><defs><style>.cls-1{fill:#fff;}</style></defs><title>icones</title><path class="cls-1" d="M11,15.67h0a4.71,4.71,0,0,1,4.41-5H95.59a4.71,4.71,0,0,1,4.41,5h0a4.71,4.71,0,0,1-4.41,5H15.41A4.71,4.71,0,0,1,11,15.67Z"/><path class="cls-1" d="M55.5,12h0a4.81,4.81,0,0,1,5,4.64V101a4.81,4.81,0,0,1-5,4.64h0a4.81,4.81,0,0,1-5-4.64V16.64A4.81,4.81,0,0,1,55.5,12Z"/><rect class="cls-1" x="90.55" y="10.67" width="9.91" height="26" rx="4.95" ry="4.95"/><rect class="cls-1" x="10.55" y="10.67" width="9.91" height="26" rx="4.95" ry="4.95"/><rect class="cls-1" x="37.5" y="95.71" width="26" height="9.91" rx="4.95" ry="4.95"/><rect class="cls-1" x="47.5" y="95.71" width="26" height="9.91" rx="4.95" ry="4.95"/></svg>