<?xml version="1.0" encoding="iso-8859-1"?>
<!-- Generator: Adobe Illustrator 16.0.0, SVG Export Plug-In . SVG Version: 6.00 Build 0)  -->
<!DOCTYPE svg PUBLIC "-//W3C//DTD SVG 1.1//EN" "http://www.w3.org/Graphics/SVG/1.1/DTD/svg11.dtd">
<svg version="1.1" id="Layer_1" xmlns="http://www.w3.org/2000/svg" xmlns:xlink="http://www.w3.org/1999/xlink" x="0px" y="0px"
	 width="25.645px" height="22.744px" viewBox="0 0 25.645 22.744" style="enable-background:new 0 0 25.645 22.744;"
	 xml:space="preserve">
<g>
	<path d="M24.055,15.145c0,0.327-0.273,0.656-0.656,0.656H2.242c-0.328,0-0.656-0.273-0.656-0.656L1.64,2.241
		c0-0.327,0.273-0.656,0.656-0.656L23.454,1.64c0.328,0,0.656,0.274,0.656,0.656L24.055,15.145z M24.11,0H1.585
		C0.71,0,0,0.711,0,1.585V15.8c0,0.875,0.71,1.585,1.585,1.585h22.47c0.875,0,1.586-0.711,1.586-1.585V1.585
		C25.696,0.711,24.985,0,24.11,0z"/>
	<path d="M24.165,22.744H1.531C0.71,22.744,0,22.087,0,21.212v-1.038c0-0.274,0.218-0.438,0.437-0.438h24.767
		c0.273,0,0.438,0.219,0.438,0.438v1.038C25.696,22.087,25.04,22.744,24.165,22.744z"/>
</g>
</svg>
