<?xml version="1.0" encoding="iso-8859-1"?>
<!-- Generator: Adobe Illustrator 16.0.0, SVG Export Plug-In . SVG Version: 6.00 Build 0)  -->
<!DOCTYPE svg PUBLIC "-//W3C//DTD SVG 1.1//EN" "http://www.w3.org/Graphics/SVG/1.1/DTD/svg11.dtd">
<svg version="1.1" id="Layer_1" xmlns="http://www.w3.org/2000/svg" xmlns:xlink="http://www.w3.org/1999/xlink" x="0px" y="0px"
	 width="31.344px" height="31.38px" viewBox="0 0 31.344 31.38" style="enable-background:new 0 0 31.344 31.38;"
	 xml:space="preserve">
<path style="opacity:0.8;" d="M10.719,0l-0.466,0.697L9.809,0.76L9.646,0.964L9.1,0.995L8.985,1.282l-0.193-0.13H8.33L8.079,0.908
	L7.616,0.757L7.165,0.629l0.591,0.573l0.099,1.126L8.426,2.32L8.393,2.695L7.886,2.693L7.831,3.041L6.928,3.408L5.582,3.447
	L5.293,3.043L5.259,2.437L4.876,2.756L4.753,2.784l-0.121-0.19L4.492,2.605l-0.021,0.15L3.306,2.788l-0.11,0.659l0.413,0.018
	L3.6,3.744L2.94,3.727L2.916,4.203l0.338,0.398L3.27,5.442l0.138,0.821L2.957,7.598L2.166,7.57L1.814,8L1.355,7.963L1.136,8.306
	L0.744,8.316L0.691,8.867l-0.253,0.01L0.389,9.875l-0.076,0.131L0.201,9.967L0.017,9.959L0,10.926l0.312,0.224l0.001,0.364
	l0.632,0.697l0.435,0.007l0.031,0.388l0.685-0.017l0.194-0.247l0.397-0.115l0.017,1.205l2.107-0.012l-0.008-0.309l0.073-0.119
	l0.062,0.131l0.23-0.082l0.003-0.236l0.31-0.025l0.06-0.27l0.249-0.211l0.117,0.035l0.412-0.227l0.002,0.008l0.329,0.012
	l0.254,0.094l0.12,0.17l-0.117,0.422l0.024,0.495l0.332,0.485l0.337,0.314l0.729,0.397l1.018,0.4l1.328,0.39l0.092,0.292
	l0.263,0.091l0.031,0.465l-0.157,0.03l-0.184,0.153l0.243,0.398l0.1,0.59l1.281-0.004l0.038,0.364l0.099,0.188l0.318,0.263
	l0.172,0.663l0.168,0.151l-0.13,0.343l0.025,2.061l-0.125,0.536l0.124,0.244l1.269-0.004l-0.013,0.154l0.313,0.004l0.054,0.239
	l0.3,0.005l-0.034,0.97l0.665-0.208l0.017,1.453l0.028,0.158l0.44-0.018l-0.012,0.389l-0.008,0.008l0.008,0.305l-0.15,0.26
	l-0.498,0.29l0.236-0.029l-0.681,0.127l-0.006,0.327l-0.427,0.255l-0.422,0.573l-0.058,0.373l-0.755,0.835l0.668,0.098l0.42,0.256
	l0.102,0.256l0.463,0.271l0.479,0.01l0.304,0.126l0.028,0.343l0.204,0.372l0.189,0.038l0.087,0.604l-0.175,0.111l-0.072,0.308
	l0.397-0.054l0.207-0.273l0.293-0.113l0.115-0.494l0.16-0.309l0.84-0.492l0.172-0.355l0.244-0.432l0.273-0.211l0.327-0.76
	l0.017-0.036l0.24-0.087l0.141-0.32l0.341-0.32l0.039-1.738l0.227-0.379l0.045-0.05l0.147-0.091l0.207-0.129l0.014-0.026
	l0.459-0.434l0.104-0.378l0.445-0.172l0.676-0.105l0.173-0.077l0.062-0.215l0.336,0.005l0.029-0.005l0.402-0.026L23.2,23.1
	l1.645-0.012l0.117-0.094l0.098-0.272l0.607-0.147l0.143-0.19l-0.025-0.437l-0.002-0.023l0.066-0.094l0.143-0.057l0.216,0.018
	l0.086-0.203l0.03-0.293l0.155-0.2l0.282-0.342l0.104-0.513l-0.017-0.392l0.104-0.35l-0.06-0.258l-0.006-0.044l0.004,0.006
	l0.247,0.019l0.271-0.061l0.025-0.61l0.119-0.267l0.062-0.458l0.084-0.25l0.213-0.21l0.027-1.765l-0.109-0.307l0.296-0.028
	l0.335-0.181l0.181-0.221l0.162-0.143l0.031-0.332l0.238-0.146l0.069-0.256l-0.009-0.003l0.393-0.34l0.393-0.529l0.008-0.014
	l0.341-0.068l0.039-0.333l0.338-0.094l0.244-0.503l0.039-0.225l-0.003-0.002l0.217-0.133l0.165-0.435l0.011-0.712l0.002-0.002
	l0.008-0.677l-0.008-0.008l0.026-0.399l-0.168-0.236L31.08,8.633l-1.284-0.019l-0.613-0.432l0.006-0.009
	c-0.701-0.752-1.637-1.483-2.947-1.385V6.785l-0.475-0.119L25.75,6.69l-1.349-0.415l-0.15,0.208l-0.27-0.069l-0.426-0.547
	l-0.273-0.068L22.831,5.51l-0.219-0.125l-0.387-0.049l-0.002,0.006l-0.312-0.436l-1.098,0.01l-0.158,0.517l-0.242,0.163
	l-0.221-0.157l0.021-0.448l0.34-0.456l-0.925-0.059l-0.103-0.163L19.112,4.31l-0.117-0.571l0.214-0.376l0.054-0.294L18.98,2.642
	l-0.497-0.04l-0.469-1.721l-0.178-0.022l-0.84,1.66l-1.64-0.181l-0.003-0.017l-0.35,0.101l-0.627-0.033l-0.023,0.502L13.16,2.953
	l-0.241,0.214l-0.679,0.041v0.003l-0.622-0.049l-0.072-0.277L11.103,2.52l0.179-1.946l-0.179-0.06l0.016-0.372L11.018,0H10.719z"/>
</svg>
