<?xml version="1.0" encoding="iso-8859-1"?>
<!-- Generator: Adobe Illustrator 16.0.0, SVG Export Plug-In . SVG Version: 6.00 Build 0)  -->
<!DOCTYPE svg PUBLIC "-//W3C//DTD SVG 1.1//EN" "http://www.w3.org/Graphics/SVG/1.1/DTD/svg11.dtd">
<svg version="1.1" id="Layer_1" xmlns="http://www.w3.org/2000/svg" xmlns:xlink="http://www.w3.org/1999/xlink" x="0px" y="0px"
	 width="25.129px" height="22.104px" viewBox="0 0 25.129 22.104" style="enable-background:new 0 0 25.129 22.104;"
	 xml:space="preserve">
<path d="M25.129,20.473l-0.136,0.126c-0.389,0.373-1.573,1.506-9.938,1.506c-5.652,0-8.999-0.503-9.95-1.493L4.98,20.49l0.01-0.144
	c0.034-0.499,0.162-2.188,0.427-2.926c0.328-0.917,0.73-1.328,1.232-1.663c0.217-0.145,1.031-0.614,2.176-1.041
	c1.275-0.477,2.252-0.979,2.845-1.316c0.431-0.246,1.023-1.471,0.854-1.949c-0.041-0.113-0.188-0.283-0.326-0.436
	c-0.001-0.001-0.004-0.002-0.005-0.004c-0.003-0.003-0.006-0.006-0.008-0.009c-0.544-0.595-1.265-1.737-1.561-2.846
	c-0.404-1.517-0.718-4.583,0.682-6.469c0.792-1.066,2.025-1.633,3.668-1.685L15.021,0l0.117,0.004
	c1.644,0.052,2.878,0.618,3.669,1.685c1.399,1.885,1.087,4.952,0.682,6.469c-0.297,1.108-1.019,2.255-1.563,2.851
	c-0.296,0.322-0.336,0.412-0.337,0.453c-0.011,0.402,0.358,1.656,0.856,1.939c0.593,0.338,1.566,0.838,2.844,1.316
	c1.144,0.427,1.957,0.896,2.175,1.041c0.502,0.335,0.904,0.746,1.231,1.663c0.263,0.733,0.393,2.409,0.426,2.905L25.129,20.473z
	 M4.257,19.295c-2.532-0.282-3.444-0.768-3.61-0.918c0.035-0.559,0.139-1.339,0.305-1.836c0.221-0.662,0.476-0.946,0.816-1.189
	c0.172-0.123,1.087-0.488,1.896-0.811c1.026-0.411,1.682-0.836,2.098-1.09c0.461-0.279,0.758-0.949,0.803-1.438
	c0.002-0.015,0.031-0.347-0.016-0.514c-0.026-0.091-0.071-0.183-0.136-0.273l-0.027-0.033c-0.041-0.043-0.152-0.172-0.16-0.182
	c-0.388-0.454-0.901-1.328-1.112-2.174C4.819,7.664,4.587,5.295,5.579,3.863c0.542-0.781,1.399-1.196,2.548-1.236l0.041-0.002
	l0.064,0.002c0.555,0.02,1.257,0.213,1.674,0.406c0.056-0.221,0.123-0.436,0.205-0.648c-0.396-0.176-1.058-0.376-1.55-0.42V1.938
	L8.17,1.941L8.12,1.939L7.799,1.946v0.021c-1.2,0.109-2.119,0.61-2.73,1.493C3.667,5.479,4.407,8.66,4.496,9.017
	c0.239,0.961,0.805,1.929,1.267,2.468c0.021,0.025,0.105,0.119,0.151,0.171c0.014,0.019,0.019,0.032,0.021,0.032
	c0.004,0.049,0.001,0.191-0.004,0.261c-0.029,0.309-0.242,0.765-0.484,0.911c-0.372,0.228-1.05,0.662-2.006,1.043
	c-1.112,0.444-1.805,0.726-2.026,0.883c-0.517,0.368-0.824,0.812-1.062,1.527c-0.248,0.742-0.345,2.081-0.348,2.155L0,18.536
	l0.021,0.065c0.091,0.277,0.854,1.016,4.184,1.38C4.215,19.83,4.23,19.586,4.257,19.295z M11.065,12.83
	c-0.05-0.025-0.099-0.051-0.135-0.072c-0.241-0.146-0.473-0.501-0.501-0.809c-0.005-0.062-0.008-0.185-0.008-0.231
	c0.039-0.06,0.128-0.178,0.183-0.243c0.147-0.172,0.235-0.246,0.391-0.494c-0.133-0.18-0.267-0.379-0.399-0.6
	c-0.179,0.313-0.368,0.588-0.534,0.783c-0.027,0.033-0.202,0.176-0.249,0.338c-0.047,0.164-0.019,0.479-0.017,0.515
	c0.039,0.418,0.281,0.866,0.636,1.192c0.213-0.099,0.387-0.186,0.505-0.259C10.979,12.922,11.021,12.882,11.065,12.83z"/>
</svg>
