<?xml version="1.0" encoding="iso-8859-1"?>
<!-- Generator: Adobe Illustrator 16.0.0, SVG Export Plug-In . SVG Version: 6.00 Build 0)  -->
<!DOCTYPE svg PUBLIC "-//W3C//DTD SVG 1.1//EN" "http://www.w3.org/Graphics/SVG/1.1/DTD/svg11.dtd">
<svg version="1.1" id="Layer_1" xmlns="http://www.w3.org/2000/svg" xmlns:xlink="http://www.w3.org/1999/xlink" x="0px" y="0px"
	 width="36.001px" height="36.001px" viewBox="0 0 36.001 36.001" style="enable-background:new 0 0 36.001 36.001;"
	 xml:space="preserve">
<g>
	<path style="fill-rule:evenodd;clip-rule:evenodd;" d="M33.75,31.5c0,1.24-1.01,2.25-2.25,2.25H4.5c-1.241,0-2.25-1.01-2.25-2.25V9
		c0-0.621,0.504-1.125,1.125-1.125H4.5v22.5c0,0.623,0.502,1.125,1.125,1.125c0.623,0,1.125-0.502,1.125-1.125v-27
		c0-0.621,0.504-1.125,1.125-1.125h24.751c0.621,0,1.125,0.504,1.125,1.125V31.5z M32.626,0H7.875C6.011,0,4.5,1.51,4.5,3.375v2.25
		H3.375C1.511,5.625,0,7.135,0,9v22.5c0,2.485,2.016,4.501,4.5,4.501h27.001c2.484,0,4.5-2.016,4.5-4.501V3.375
		C36.001,1.51,34.49,0,32.626,0z"/>
	<path style="fill-rule:evenodd;clip-rule:evenodd;" d="M21.936,14.631h9c0.312,0,0.562-0.251,0.562-0.562
		c0-0.311-0.251-0.562-0.562-0.562h-9c-0.309,0-0.562,0.252-0.562,0.562C21.374,14.38,21.627,14.631,21.936,14.631z"/>
	<path style="fill-rule:evenodd;clip-rule:evenodd;" d="M21.936,11.256h9c0.312,0,0.562-0.251,0.562-0.562
		c0-0.311-0.251-0.562-0.562-0.562h-9c-0.309,0-0.562,0.252-0.562,0.562C21.374,11.005,21.627,11.256,21.936,11.256z"/>
	<path style="fill-rule:evenodd;clip-rule:evenodd;" d="M21.936,7.881h9c0.312,0,0.562-0.252,0.562-0.562
		c0-0.312-0.251-0.562-0.562-0.562h-9c-0.309,0-0.562,0.251-0.562,0.562C21.374,7.629,21.627,7.881,21.936,7.881z"/>
	<path style="fill-rule:evenodd;clip-rule:evenodd;" d="M18.563,30.379h-9C9.251,30.379,9,30.633,9,30.941
		c0,0.312,0.251,0.562,0.563,0.562h9c0.309,0,0.563-0.25,0.563-0.562C19.126,30.633,18.874,30.379,18.563,30.379z"/>
	<path style="fill-rule:evenodd;clip-rule:evenodd;" d="M18.563,27.004h-9C9.251,27.004,9,27.258,9,27.566
		c0,0.312,0.251,0.562,0.563,0.562h9c0.309,0,0.563-0.251,0.563-0.562C19.126,27.258,18.874,27.004,18.563,27.004z"/>
	<path style="fill-rule:evenodd;clip-rule:evenodd;" d="M18.563,23.629h-9C9.251,23.629,9,23.883,9,24.191
		c0,0.312,0.251,0.562,0.563,0.562h9c0.309,0,0.563-0.251,0.563-0.562C19.126,23.883,18.874,23.629,18.563,23.629z"/>
	<path style="fill-rule:evenodd;clip-rule:evenodd;" d="M30.938,30.379h-9c-0.311,0-0.562,0.254-0.562,0.562
		c0,0.312,0.251,0.562,0.562,0.562h9c0.31,0,0.562-0.25,0.562-0.562C31.501,30.633,31.248,30.379,30.938,30.379z"/>
	<path style="fill-rule:evenodd;clip-rule:evenodd;" d="M30.938,27.004h-9c-0.311,0-0.562,0.254-0.562,0.562
		c0,0.312,0.251,0.562,0.562,0.562h9c0.31,0,0.562-0.251,0.562-0.562C31.501,27.258,31.248,27.004,30.938,27.004z"/>
	<path style="fill-rule:evenodd;clip-rule:evenodd;" d="M30.938,23.629h-9c-0.311,0-0.562,0.254-0.562,0.562
		c0,0.312,0.251,0.562,0.562,0.562h9c0.31,0,0.562-0.251,0.562-0.562C31.501,23.883,31.248,23.629,30.938,23.629z"/>
	<path style="fill-rule:evenodd;clip-rule:evenodd;" d="M30.938,16.879H9.563C9.251,16.879,9,17.131,9,17.441
		c0,0.312,0.251,0.562,0.563,0.562h21.375c0.31,0,0.562-0.251,0.562-0.562C31.501,17.131,31.248,16.879,30.938,16.879z"/>
	<path style="fill-rule:evenodd;clip-rule:evenodd;" d="M30.938,20.254H9.563C9.251,20.254,9,20.508,9,20.816
		c0,0.312,0.251,0.562,0.563,0.562h21.375c0.31,0,0.562-0.251,0.562-0.562C31.501,20.508,31.248,20.254,30.938,20.254z"/>
	<path style="fill-rule:evenodd;clip-rule:evenodd;" d="M11.25,6.749h5.625v5.626H11.25V6.749z M10.125,14.625H18
		c0.623,0,1.125-0.502,1.125-1.125V5.629c0-0.623-0.503-1.125-1.125-1.125h-7.875C9.503,4.504,9,5.006,9,5.629V13.5
		C9,14.121,9.503,14.625,10.125,14.625z"/>
</g>
</svg>
