<?xml version="1.0" encoding="iso-8859-1"?>
<!-- Generator: Adobe Illustrator 16.0.0, SVG Export Plug-In . SVG Version: 6.00 Build 0)  -->
<!DOCTYPE svg PUBLIC "-//W3C//DTD SVG 1.1//EN" "http://www.w3.org/Graphics/SVG/1.1/DTD/svg11.dtd">
<svg version="1.1" id="Layer_1" xmlns="http://www.w3.org/2000/svg" xmlns:xlink="http://www.w3.org/1999/xlink" x="0px" y="0px"
	 width="39.382px" height="23.272px" viewBox="0 0 39.382 23.272" style="enable-background:new 0 0 39.382 23.272;"
	 xml:space="preserve">
<g>
	<path d="M19.691,14.321c-8.234,0-10.74,5.908-10.74,5.908v3.043h21.481v-3.043C30.432,20.229,27.926,14.321,19.691,14.321z
		 M14.321,5.372c0-3.045,2.327-5.372,5.37-5.372s5.371,2.327,5.371,5.372c0,3.042-2.328,5.369-5.371,5.369
		S14.321,8.414,14.321,5.372z"/>
	<path d="M35.802,4.475c0,2.474-2.002,4.476-4.475,4.476c-2.473,0-4.476-2.002-4.476-4.476C26.851,2.002,28.854,0,31.327,0
		C33.8,0,35.802,2.002,35.802,4.475"/>
	<path d="M31.327,12.53c-2.148,0-3.759,0.537-5.012,1.433c4.117,1.97,5.728,5.372,5.728,5.729v0.178h7.34v-2.326
		C39.382,17.365,37.414,12.53,31.327,12.53z"/>
	<path d="M35.802,4.475c0,2.474-2.002,4.476-4.475,4.476c-2.473,0-4.476-2.002-4.476-4.476C26.851,2.002,28.854,0,31.327,0
		C33.8,0,35.802,2.002,35.802,4.475"/>
	<path d="M31.327,12.53c-2.148,0-3.759,0.537-5.012,1.433c4.117,1.97,5.728,5.372,5.728,5.729v0.178h7.34v-2.326
		C39.382,17.365,37.414,12.53,31.327,12.53z"/>
	<path d="M12.531,4.475c0,2.474-2.003,4.476-4.475,4.476c-2.473,0-4.475-2.002-4.475-4.476C3.581,2.002,5.583,0,8.056,0
		C10.528,0,12.531,2.002,12.531,4.475"/>
	<path d="M8.056,12.53c2.148,0,3.759,0.537,5.012,1.433c-4.117,1.97-5.728,5.372-5.728,5.729v0.178H0v-2.326
		C0,17.365,1.969,12.53,8.056,12.53z"/>
</g>
</svg>
