<?xml version="1.0" encoding="iso-8859-1"?>
<!-- Generator: Adobe Illustrator 16.0.0, SVG Export Plug-In . SVG Version: 6.00 Build 0)  -->
<!DOCTYPE svg PUBLIC "-//W3C//DTD SVG 1.1//EN" "http://www.w3.org/Graphics/SVG/1.1/DTD/svg11.dtd">
<svg version="1.1" id="Layer_1" xmlns="http://www.w3.org/2000/svg" xmlns:xlink="http://www.w3.org/1999/xlink" x="0px" y="0px"
	 width="33.588px" height="33.586px" viewBox="0 0 33.588 33.586" style="enable-background:new 0 0 33.588 33.586;"
	 xml:space="preserve">
<g>
	<path d="M5.472,27.971H2.544c-0.239,0-0.383-0.192-0.383-0.382V12.762c0-0.239,0.192-0.383,0.383-0.383h2.928
		c0.239,0,0.383,0.192,0.383,0.383v14.777C5.903,27.78,5.711,27.971,5.472,27.971z"/>
	<path d="M14.155,27.971h-2.928c-0.239,0-0.383-0.192-0.383-0.382V12.762c0-0.239,0.193-0.383,0.383-0.383h2.928
		c0.239,0,0.383,0.192,0.383,0.383v14.777C14.54,27.78,14.348,27.971,14.155,27.971z"/>
	<path d="M22.791,27.971h-2.927c-0.24,0-0.383-0.192-0.383-0.382V12.762c0-0.239,0.193-0.383,0.383-0.383h2.927
		c0.239,0,0.383,0.192,0.383,0.383v14.777C23.223,27.78,23.032,27.971,22.791,27.971z"/>
	<path d="M31.427,27.971H28.5c-0.239,0-0.383-0.192-0.383-0.382V12.762c0-0.239,0.193-0.383,0.383-0.383h2.927
		c0.239,0,0.383,0.192,0.383,0.383v14.777C31.859,27.78,31.668,27.971,31.427,27.971z"/>
	<path d="M32.676,6.668V6.332c0-0.096-0.048-0.144-0.096-0.144L16.89,0L1.009,6.189C0.96,6.236,0.913,6.285,0.913,6.333V6.67
		c0,0.095-0.096,0.192-0.192,0.192H0.192C0.097,6.862,0,6.958,0,7.055v3.5h33.586V7.051c0-0.096-0.095-0.192-0.192-0.192h-0.576
		C32.771,6.861,32.676,6.765,32.676,6.668z"/>
	<rect x="0.002" y="29.939" width="33.586" height="3.647"/>
</g>
</svg>
