<?xml version="1.0" encoding="iso-8859-1"?>
<!-- Generator: Adobe Illustrator 16.0.0, SVG Export Plug-In . SVG Version: 6.00 Build 0)  -->
<!DOCTYPE svg PUBLIC "-//W3C//DTD SVG 1.1//EN" "http://www.w3.org/Graphics/SVG/1.1/DTD/svg11.dtd">
<svg version="1.1" id="Layer_1" xmlns="http://www.w3.org/2000/svg" xmlns:xlink="http://www.w3.org/1999/xlink" x="0px" y="0px"
	 width="17.482px" height="15.211px" viewBox="0 0 17.482 15.211" style="enable-background:new 0 0 17.482 15.211;"
	 xml:space="preserve">
<g>
	<g>
		<path d="M14.161,1.05c0,0.577-0.551,1.049-1.224,1.049H1.225C0.552,2.099,0,1.627,0,1.05S0.552,0,1.225,0h11.713
			C13.61,0,14.161,0.473,14.161,1.05z"/>
		<path d="M9.791,14.161c0,0.577-0.552,1.05-1.225,1.05H1.225C0.552,15.211,0,14.738,0,14.161s0.552-1.049,1.225-1.049h7.342
			C9.239,13.112,9.791,13.584,9.791,14.161z"/>
		<path d="M17.482,5.42c0,0.625-0.551,1.137-1.224,1.137H1.225C0.552,6.557,0,6.045,0,5.42c0-0.624,0.552-1.137,1.225-1.137h15.034
			C16.932,4.283,17.482,4.796,17.482,5.42z"/>
		<path d="M17.482,9.791c0,0.577-0.551,1.049-1.224,1.049H1.225C0.552,10.84,0,10.368,0,9.791c0-0.578,0.552-1.049,1.225-1.049
			h15.034C16.932,8.742,17.482,9.213,17.482,9.791z"/>
	</g>
</g>
</svg>
