<?xml version="1.0" encoding="iso-8859-1"?>
<!-- Generator: Adobe Illustrator 16.0.0, SVG Export Plug-In . SVG Version: 6.00 Build 0)  -->
<!DOCTYPE svg PUBLIC "-//W3C//DTD SVG 1.1//EN" "http://www.w3.org/Graphics/SVG/1.1/DTD/svg11.dtd">
<svg version="1.1" id="Layer_1" xmlns="http://www.w3.org/2000/svg" xmlns:xlink="http://www.w3.org/1999/xlink" x="0px" y="0px"
	 width="17.324px" height="14.916px" viewBox="0 0 17.324 14.916" style="enable-background:new 0 0 17.324 14.916;"
	 xml:space="preserve">
<g>
	<path d="M2.559,4.199c-0.838,0-1.52,0.682-1.52,1.519v4.021c0,0.838,0.681,1.52,1.52,1.52l0.655,0.015
		c0.283,0.007,0.508,0.237,0.508,0.521v1.619C3.719,13.519,3.74,13.72,3.83,13.812c0.016,0.017,0.061,0.063,0.211,0.063v0.52
		l0.001-0.52c0.3-0.002,0.581-0.307,0.768-0.506l0.097-0.104l1.792-1.834c0.098-0.101,0.231-0.156,0.372-0.156h4.541
		c0.838,0,1.521-0.688,1.521-1.536V5.718c0-0.837-0.682-1.519-1.521-1.519H2.559z M4.046,14.916c-0.002,0-0.003,0-0.004,0
		c-0.495,0-0.799-0.211-0.968-0.391c-0.416-0.44-0.395-1.069-0.389-1.139l-0.002-1.084l-0.136-0.004C1.148,12.299,0,11.15,0,9.741
		V5.718c0-1.411,1.148-2.559,2.56-2.559h9.056c1.41,0,2.559,1.149,2.559,2.559v4.021c0,1.42-1.148,2.574-2.559,2.574H7.291
		l-1.717,1.761C5.324,14.347,4.799,14.913,4.046,14.916z"/>
	<path d="M15.049,8.014c-0.287,0-0.52-0.232-0.52-0.519c0-0.288,0.232-0.521,0.52-0.521c0.681,0,1.235-0.555,1.235-1.236v-2.77
		c0-1.352-0.575-1.928-1.929-1.928H7.252c-0.682,0-1.236,0.555-1.236,1.236c0,0.285-0.232,0.518-0.519,0.518
		c-0.287,0-0.521-0.232-0.521-0.518C4.977,1.021,5.997,0,7.252,0h7.104c1.941,0,2.969,1.027,2.969,2.969v2.77
		C17.324,6.994,16.303,8.014,15.049,8.014z"/>
	<path d="M9.794,7.379h-6.15c-0.286,0-0.521-0.233-0.521-0.52c0-0.287,0.234-0.52,0.521-0.52h6.15c0.286,0,0.52,0.232,0.52,0.52
		C10.313,7.146,10.082,7.379,9.794,7.379z"/>
	<path d="M7.088,9.631H3.644c-0.286,0-0.521-0.232-0.521-0.52c0-0.285,0.234-0.52,0.521-0.52h3.444c0.285,0,0.52,0.234,0.52,0.52
		C7.607,9.398,7.373,9.631,7.088,9.631z"/>
</g>
</svg>
