<?xml version="1.0" encoding="iso-8859-1"?>
<!-- Generator: Adobe Illustrator 16.0.0, SVG Export Plug-In . SVG Version: 6.00 Build 0)  -->
<!DOCTYPE svg PUBLIC "-//W3C//DTD SVG 1.1//EN" "http://www.w3.org/Graphics/SVG/1.1/DTD/svg11.dtd">
<svg version="1.1" id="Layer_1" xmlns="http://www.w3.org/2000/svg" xmlns:xlink="http://www.w3.org/1999/xlink" x="0px" y="0px"
	 width="32.259px" height="36.139px" viewBox="0 0 32.259 36.139" style="enable-background:new 0 0 32.259 36.139;"
	 xml:space="preserve">
<g>
	<path d="M11.471,16.021c0.172,0.107,0.345,0.213,0.522,0.311c1.23,0.666,2.639,1.045,4.137,1.045c1.403,0,2.728-0.336,3.901-0.926
		c0.262-0.131,0.513-0.277,0.758-0.433c2.419-1.54,4.028-4.248,4.028-7.331C24.816,3.89,20.927,0,16.129,0S7.442,3.89,7.442,8.688
		C7.442,11.773,9.051,14.479,11.471,16.021z"/>
	<path d="M22.356,17.437l-6.227,4.612l-6.252-4.607C2.01,18.379,0,24.273,0,31.402c0,7.781,7.22,3.63,16.129,3.63
		s16.129,4.151,16.129-3.63C32.259,24.264,30.235,18.365,22.356,17.437z"/>
</g>
</svg>
