<?xml version="1.0" encoding="iso-8859-1"?>
<!-- Generator: Adobe Illustrator 16.0.0, SVG Export Plug-In . SVG Version: 6.00 Build 0)  -->
<!DOCTYPE svg PUBLIC "-//W3C//DTD SVG 1.1//EN" "http://www.w3.org/Graphics/SVG/1.1/DTD/svg11.dtd">
<svg version="1.1" id="Layer_1" xmlns="http://www.w3.org/2000/svg" xmlns:xlink="http://www.w3.org/1999/xlink" x="0px" y="0px"
	 width="23.954px" height="18.378px" viewBox="0 0 23.954 18.378" style="enable-background:new 0 0 23.954 18.378;"
	 xml:space="preserve">
<path d="M17.142,5.744c-0.513-0.078-0.865-0.551-0.787-1.062c0.078-0.513,0.551-0.864,1.062-0.787
	c0.513,0.078,0.864,0.552,0.787,1.062C18.125,5.47,17.654,5.824,17.142,5.744z M23.282,3.07c-0.748,0.354-1.574,0.629-2.4,0.787
	c-0.825-1.339-2.202-2.283-3.776-2.52c-0.274-0.039-0.552-0.078-0.826-0.078c-2.676,0-4.918,1.929-5.312,4.564
	c-0.039,0.274-0.078,0.59-0.078,0.865C7.82,5.547,5.303,3.267,3.885,0.274C3.807,0.117,3.649,0.039,3.492,0
	C3.333,0,3.176,0.078,3.059,0.197C2.154,1.574,1.917,3.226,2.391,4.761c-0.078,0-0.158-0.039-0.196,0
	C1.998,4.799,1.878,4.918,1.839,5.115c-0.432,1.651,0,3.422,1.023,4.721c-0.119,0-0.197,0.039-0.275,0.119
	c-0.157,0.119-0.196,0.316-0.157,0.472c0.433,1.692,1.651,3.069,3.226,3.66c-1.652,0.59-3.384,0.825-5.154,0.709
	c-0.196,0-0.394,0.118-0.471,0.315c-0.078,0.197,0,0.394,0.157,0.551c1.771,1.339,3.856,2.203,6.06,2.559
	c0.709,0.118,1.377,0.157,2.086,0.157c6.061,0,11.411-4.054,13.023-9.876c0.119-0.314,0.197-0.668,0.236-0.982
	c0-0.078,0.038-0.158,0.038-0.236c0.039-0.119,0.039-0.236,0.078-0.354c0.906-0.944,1.651-2.007,2.203-3.187
	c0.078-0.158,0.039-0.394-0.078-0.513C23.675,3.031,23.437,2.99,23.282,3.07z"/>
</svg>
