<?xml version="1.0" encoding="utf-8"?>
<!-- Generator: Adobe Illustrator 19.1.0, SVG Export Plug-In . SVG Version: 6.00 Build 0)  -->
<svg version="1.1" id="Camada_1" xmlns="http://www.w3.org/2000/svg" xmlns:xlink="http://www.w3.org/1999/xlink" x="0px" y="0px"
	 viewBox="0 0 29.7 29.7" style="enable-background:new 0 0 29.7 29.7;" xml:space="preserve">
<g>
	<path d="M23.3,28.1H6.4c-2.7,0-4.8-2.2-4.8-4.8V10.7h6.9c1.5-1.8,3.8-3,6.3-3c2.6,0,4.8,1.2,6.4,3h6.9v12.5
		C28.1,25.9,25.9,28.1,23.3,28.1z M20.1,4.7c0-0.6,0.5-1,1-1h3.1c0.6,0,1,0.5,1,1v3.1c0,0.6-0.5,1-1,1h-3.1c-0.6,0-1-0.5-1-1V4.7z
		 M23.3,0H6.4C2.9,0,0,2.9,0,6.4v16.9c0,3.5,2.9,6.4,6.4,6.4h16.9c3.5,0,6.4-2.9,6.4-6.4V6.4C29.7,2.9,26.8,0,23.3,0z"/>
	<path d="M21.7,15.5c0,3.8-3.1,6.8-6.8,6.8c-3.8,0-6.8-3.1-6.8-6.8c0-3.8,3.1-6.8,6.8-6.8C18.6,8.6,21.7,11.7,21.7,15.5"/>
</g>
</svg>
