<?xml version="1.0" encoding="utf-8"?>
<!-- Generator: Adobe Illustrator 19.1.0, SVG Export Plug-In . SVG Version: 6.00 Build 0)  -->
<svg version="1.1" id="Camada_1" xmlns="http://www.w3.org/2000/svg" xmlns:xlink="http://www.w3.org/1999/xlink" x="0px" y="0px"
	 viewBox="0 0 49.7 46.9" style="enable-background:new 0 0 49.7 46.9;" xml:space="preserve">
<g>
	<path d="M29.2,6c3.2,0,5.8,2.6,5.8,5.8c0,0.4,0.3,0.7,0.7,0.7c0.4,0,0.7-0.3,0.7-0.7c0-4-3.2-7.2-7.2-7.2c-0.4,0-0.7,0.3-0.7,0.7
		C28.5,5.7,28.8,6,29.2,6z M47,27.6c0-0.5-0.2-0.9-0.5-1.3L39,18.9l-2.5,2.5l7.5,7.5c0.7,0.7,1.9,0.7,2.5,0
		C46.8,28.6,47,28.1,47,27.6z M29.6,23.5c-0.1,0-0.3,0-0.4,0c-2.9,0-5.6-1.1-7.6-2.8h-16c-0.4,0-0.7-0.3-0.7-0.7
		c0-0.4,0.3-0.7,0.7-0.7h14.6c-0.6-0.8-1.2-1.6-1.6-2.5h-13c-0.4,0-0.7-0.3-0.7-0.7c0-0.4,0.3-0.7,0.7-0.7H18
		c-0.4-1.1-0.6-2.4-0.6-3.6c0-0.5,0-1,0.1-1.5H1.4v35.3h28.2V23.5z M20.2,11.8c0,5,4,9,9,9c5,0,9-4,9-9c0-5-4-9-9-9
		C24.2,2.8,20.2,6.8,20.2,11.8z M49.7,27.6c0,1.2-0.5,2.4-1.3,3.2c-0.9,0.9-2,1.3-3.2,1.3c-1.2,0-2.4-0.5-3.2-1.3l-8.2-8.2
		c-0.9,0.4-1.8,0.6-2.8,0.8v22.8c0,0.4-0.3,0.7-0.7,0.7H0.7c-0.4,0-0.7-0.3-0.7-0.7V9.5c0-0.4,0.3-0.7,0.7-0.7h17.1
		C19.1,3.8,23.7,0,29.2,0c6.5,0,11.8,5.3,11.8,11.8c0,1.5-0.3,3-0.8,4.4l8.3,8.3C49.3,25.3,49.7,26.4,49.7,27.6z M18.8,38.9H5.6
		c-0.4,0-0.7,0.3-0.7,0.7c0,0.4,0.3,0.7,0.7,0.7h13.2c0.4,0,0.7-0.3,0.7-0.7C19.5,39.2,19.2,38.9,18.8,38.9z M25.4,35H5.6
		c-0.4,0-0.7,0.3-0.7,0.7c0,0.4,0.3,0.7,0.7,0.7h19.8c0.4,0,0.7-0.3,0.7-0.7C26.1,35.3,25.7,35,25.4,35z M25.4,31.1H5.6
		c-0.4,0-0.7,0.3-0.7,0.7c0,0.4,0.3,0.7,0.7,0.7h19.8c0.4,0,0.7-0.3,0.7-0.7C26.1,31.4,25.7,31.1,25.4,31.1z M25.4,27.2H5.6
		c-0.4,0-0.7,0.3-0.7,0.7s0.3,0.7,0.7,0.7h19.8c0.4,0,0.7-0.3,0.7-0.7C26.1,27.5,25.7,27.2,25.4,27.2z M26.1,23.9
		c0,0.4-0.3,0.7-0.7,0.7H5.6c-0.4,0-0.7-0.3-0.7-0.7c0-0.4,0.3-0.7,0.7-0.7h19.8C25.7,23.2,26.1,23.5,26.1,23.9z"/>
</g>
</svg>
