<?xml version="1.0" encoding="iso-8859-1"?>
<!-- Generator: Adobe Illustrator 16.0.0, SVG Export Plug-In . SVG Version: 6.00 Build 0)  -->
<!DOCTYPE svg PUBLIC "-//W3C//DTD SVG 1.1//EN" "http://www.w3.org/Graphics/SVG/1.1/DTD/svg11.dtd">
<svg version="1.1" id="Layer_1" xmlns="http://www.w3.org/2000/svg" xmlns:xlink="http://www.w3.org/1999/xlink" x="0px" y="0px"
	 width="28.002px" height="28.002px" viewBox="0 0 28.002 28.002" style="enable-background:new 0 0 28.002 28.002;"
	 xml:space="preserve">
<g>
	<g>
		<path d="M17.971,15.89c-0.596,0-1.156,0.21-1.595,0.543l-5.117-2.382c0.018-0.143,0.035-0.281,0.035-0.438
			c0-0.142-0.017-0.298-0.035-0.438l5.099-2.4c0.438,0.333,0.999,0.543,1.594,0.543c1.456,0,2.628-1.174,2.628-2.628
			c0-1.455-1.173-2.629-2.628-2.629c-1.454,0-2.628,1.174-2.628,2.629c0,0.141,0.017,0.297,0.035,0.438l-5.081,2.398
			c-0.438-0.332-0.999-0.543-1.595-0.543c-1.454,0-2.628,1.174-2.628,2.63c0,1.454,1.174,2.628,2.628,2.628
			c0.596,0,1.156-0.211,1.595-0.543l5.099,2.4c-0.017,0.14-0.035,0.28-0.035,0.438c0,1.454,1.174,2.628,2.628,2.628
			s2.628-1.174,2.628-2.628C20.599,17.08,19.408,15.89,17.971,15.89z"/>
	</g>
	<g>
		<path d="M14.001,28.002C6.281,28.002,0,21.721,0,14.001S6.281,0,14.001,0s14.001,6.281,14.001,14.001S21.721,28.002,14.001,28.002
			z M14.001,2.381c-6.407,0-11.619,5.213-11.619,11.62s5.212,11.62,11.619,11.62s11.619-5.213,11.619-11.62
			S20.408,2.381,14.001,2.381z"/>
	</g>
</g>
</svg>
