<?xml version="1.0" encoding="iso-8859-1"?>
<!-- Generator: Adobe Illustrator 16.0.0, SVG Export Plug-In . SVG Version: 6.00 Build 0)  -->
<!DOCTYPE svg PUBLIC "-//W3C//DTD SVG 1.1//EN" "http://www.w3.org/Graphics/SVG/1.1/DTD/svg11.dtd">
<svg version="1.1" id="Layer_1" xmlns="http://www.w3.org/2000/svg" xmlns:xlink="http://www.w3.org/1999/xlink" x="0px" y="0px"
	 width="14.919px" height="15.651px" viewBox="0 0 14.919 15.651" style="enable-background:new 0 0 14.919 15.651;"
	 xml:space="preserve">
<path style="fill:#59C7DC;" d="M2.585,6.462c0-2.138,1.74-3.878,3.878-3.878s3.878,1.74,3.878,3.878c0,2.139-1.74,3.879-3.878,3.879
	C4.325,10.34,2.585,8.601,2.585,6.462z M14.442,12.803l-2.667-2.667c0.726-1.044,1.15-2.31,1.15-3.674
	c0-3.563-2.9-6.462-6.464-6.462C2.899,0,0,2.899,0,6.462c0,3.564,2.899,6.463,6.463,6.463c0.981,0,1.913-0.221,2.747-0.614
	l2.861,2.862c0.309,0.307,0.721,0.478,1.159,0.478c0.448,0,0.872-0.176,1.193-0.496C15.077,14.501,15.085,13.447,14.442,12.803z"/>
</svg>
