<?xml version="1.0" encoding="iso-8859-1"?>
<!-- Generator: Adobe Illustrator 16.0.0, SVG Export Plug-In . SVG Version: 6.00 Build 0)  -->
<!DOCTYPE svg PUBLIC "-//W3C//DTD SVG 1.1//EN" "http://www.w3.org/Graphics/SVG/1.1/DTD/svg11.dtd">
<svg version="1.1" id="Layer_1" xmlns="http://www.w3.org/2000/svg" xmlns:xlink="http://www.w3.org/1999/xlink" x="0px" y="0px"
	 width="31.344px" height="31.38px" viewBox="0 0 31.344 31.38" style="enable-background:new 0 0 31.344 31.38;"
	 xml:space="preserve">
<path d="M10.719,0l-0.467,0.698L9.809,0.76L9.645,0.964L9.1,0.995L8.985,1.282l-0.193-0.13H8.331L8.079,0.908L7.616,0.757
	L7.165,0.629l0.591,0.573l0.099,1.126L8.426,2.32L8.393,2.696L7.885,2.694L7.831,3.041L6.928,3.408l-1.346,0.04L5.293,3.042
	L5.259,2.437l-0.382,0.32L4.753,2.784l-0.121-0.19L4.492,2.605L4.471,2.756L3.306,2.788l-0.11,0.66l0.413,0.017L3.6,3.744
	L2.94,3.727L2.916,4.203l0.338,0.398L3.27,5.442l0.138,0.821L2.957,7.598L2.166,7.57L1.814,8L1.355,7.962L1.136,8.306L0.744,8.317
	l-0.053,0.55l-0.253,0.01L0.389,9.875l-0.076,0.131l-0.113-0.04L0.017,9.958L0,10.926l0.312,0.224l0.001,0.364l0.632,0.698
	l0.435,0.006l0.031,0.388l0.685-0.017l0.194-0.248l0.397-0.115l0.017,1.205l2.107-0.011l-0.008-0.309l0.073-0.118l0.062,0.13
	l0.23-0.082l0.003-0.236l0.31-0.025l0.06-0.269l0.249-0.212l0.117,0.036l0.412-0.227l0.002,0.007l0.329,0.013l0.254,0.094
	l0.121,0.169l-0.117,0.422l0.024,0.496l0.331,0.485l0.338,0.315l0.729,0.397l1.018,0.4l1.328,0.389l0.092,0.292l0.263,0.09
	l0.03,0.466l-0.156,0.03l-0.184,0.154l0.242,0.397l0.1,0.59l1.281-0.003l0.037,0.364l0.1,0.188l0.318,0.263l0.172,0.663l0.168,0.151
	l-0.13,0.343l0.024,2.061l-0.125,0.537l0.123,0.243l1.27-0.003l-0.014,0.154l0.314,0.003l0.054,0.24l0.3,0.004l-0.033,0.97
	l0.664-0.208l0.017,1.453l0.028,0.158l0.439-0.018l-0.012,0.389l-0.008,0.008l0.008,0.305l-0.15,0.26l-0.498,0.29l0.236-0.029
	l-0.682,0.127l-0.006,0.327l-0.427,0.255l-0.422,0.573l-0.058,0.373l-0.755,0.835l0.668,0.098l0.42,0.256l0.103,0.256l0.463,0.271
	l0.479,0.01l0.305,0.126l0.027,0.342l0.203,0.373l0.189,0.038l0.088,0.604l-0.176,0.111l-0.071,0.307l0.397-0.054l0.207-0.273
	l0.293-0.113l0.115-0.495l0.16-0.308l0.84-0.492l0.172-0.356l0.244-0.431l0.273-0.211l0.327-0.76l0.017-0.036l0.24-0.087l0.141-0.32
	l0.341-0.32l0.039-1.739l0.227-0.379l0.045-0.049l0.147-0.09l0.207-0.129l0.014-0.026l0.459-0.434l0.104-0.378l0.445-0.172
	l0.676-0.105l0.173-0.077l0.062-0.215l0.336,0.005l0.029-0.005l0.402-0.026l0.072-0.204l1.645-0.011l0.117-0.094l0.098-0.272
	l0.607-0.148l0.143-0.19l-0.025-0.437l-0.002-0.023l0.066-0.094l0.143-0.057l0.216,0.018l0.086-0.204l0.03-0.292l0.155-0.2
	l0.282-0.342l0.104-0.512l-0.017-0.392l0.104-0.35l-0.06-0.258l-0.006-0.044l0.004,0.007l0.247,0.018l0.271-0.061l0.025-0.61
	l0.119-0.267l0.062-0.458l0.084-0.25l0.213-0.21l0.027-1.765l-0.109-0.307l0.296-0.028l0.335-0.181l0.181-0.22l0.162-0.143
	l0.031-0.333l0.238-0.145l0.069-0.256l-0.009-0.003l0.393-0.34l0.393-0.528l0.008-0.015l0.341-0.067l0.039-0.333l0.338-0.094
	l0.244-0.502l0.039-0.225l-0.003-0.003l0.217-0.132l0.165-0.435l0.011-0.712l0.002-0.002l0.008-0.676l-0.008-0.008l0.026-0.399
	l-0.168-0.236L31.08,8.633l-1.284-0.019l-0.613-0.432l0.006-0.008c-0.701-0.752-1.637-1.484-2.947-1.386V6.786l-0.475-0.12
	L25.75,6.69l-1.349-0.416l-0.15,0.208l-0.27-0.069l-0.426-0.546l-0.273-0.069L22.831,5.51l-0.219-0.125l-0.387-0.05l-0.002,0.007
	l-0.312-0.437l-1.098,0.01l-0.158,0.517l-0.242,0.163l-0.221-0.157l0.021-0.448l0.34-0.457l-0.925-0.059l-0.103-0.163L19.112,4.31
	l-0.117-0.571l0.214-0.376l0.054-0.294L18.98,2.642l-0.497-0.04L18.014,0.88l-0.178-0.022l-0.84,1.66l-1.64-0.181l-0.003-0.017
	l-0.351,0.101l-0.627-0.033l-0.022,0.502L13.16,2.954l-0.241,0.213l-0.68,0.041v0.003l-0.621-0.049l-0.072-0.277L11.103,2.52
	l0.179-1.947l-0.179-0.059l0.017-0.373L11.018,0H10.719z"/>
</svg>
