<?xml version="1.0" encoding="iso-8859-1"?>
<!-- Generator: Adobe Illustrator 16.0.0, SVG Export Plug-In . SVG Version: 6.00 Build 0)  -->
<!DOCTYPE svg PUBLIC "-//W3C//DTD SVG 1.1//EN" "http://www.w3.org/Graphics/SVG/1.1/DTD/svg11.dtd">
<svg version="1.1" id="Layer_1" xmlns="http://www.w3.org/2000/svg" xmlns:xlink="http://www.w3.org/1999/xlink" x="0px" y="0px"
	 width="22.332px" height="22.333px" viewBox="0 0 22.332 22.333" style="enable-background:new 0 0 22.332 22.333;"
	 xml:space="preserve">
<g>
	<path d="M11.176,12.954c-0.986,0-1.788-0.803-1.788-1.787c0-0.985,0.802-1.787,1.788-1.787c0.985,0,1.788,0.802,1.788,1.787
		C12.964,12.151,12.161,12.954,11.176,12.954z M22.288,9.999c-0.643-6.121-6.15-10.582-12.28-9.938
		C7.039,0.374,4.37,1.821,2.491,4.14s-2.74,5.228-2.429,8.193c0.603,5.729,5.464,10,11.104,10c0.389,0,0.781-0.02,1.177-0.062
		c1.525-0.161,2.972-0.618,4.299-1.364c0.754-0.422,1.021-1.375,0.598-2.129c-0.422-0.752-1.377-1.02-2.13-0.598
		c-0.953,0.535-1.994,0.865-3.094,0.98c-4.411,0.465-8.379-2.746-8.843-7.154c-0.224-2.136,0.397-4.23,1.75-5.9
		c1.353-1.668,3.274-2.711,5.411-2.936c4.414-0.464,8.378,2.746,8.842,7.154c0.115,1.099-0.144,1.967-0.713,2.379
		c-0.354,0.258-0.806,0.306-1.206,0.127c-0.642-0.286-1.077-1.079-1.192-2.178c0-0.002,0-0.003-0.001-0.006
		c-0.26-2.465-2.354-4.395-4.889-4.395c-2.712,0-4.917,2.205-4.917,4.914s2.205,4.913,4.917,4.913c1.319,0,2.517-0.522,3.401-1.37
		c0.405,0.412,0.878,0.742,1.408,0.979c1.434,0.637,3.049,0.469,4.318-0.454C21.801,14.147,22.524,12.239,22.288,9.999z"/>
</g>
</svg>
