<?xml version="1.0" encoding="iso-8859-1"?>
<!-- Generator: Adobe Illustrator 16.0.0, SVG Export Plug-In . SVG Version: 6.00 Build 0)  -->
<!DOCTYPE svg PUBLIC "-//W3C//DTD SVG 1.1//EN" "http://www.w3.org/Graphics/SVG/1.1/DTD/svg11.dtd">
<svg version="1.1" id="Layer_1" xmlns="http://www.w3.org/2000/svg" xmlns:xlink="http://www.w3.org/1999/xlink" x="0px" y="0px"
	 width="24.936px" height="24.938px" viewBox="0 0 24.936 24.938" style="enable-background:new 0 0 24.936 24.938;"
	 xml:space="preserve">
<g>
	<path d="M19.55,23.613H5.384c-2.238,0-4.062-1.822-4.062-4.062V9.004h5.806c1.263-1.549,3.183-2.539,5.337-2.539
		c2.153,0,4.076,0.99,5.338,2.539h5.806v10.547C23.611,21.791,21.79,23.613,19.55,23.613z M16.861,3.988
		c0-0.484,0.394-0.879,0.878-0.879h2.637c0.484,0,0.878,0.395,0.878,0.879v2.637c0,0.484-0.394,0.879-0.878,0.879h-2.637
		c-0.484,0-0.878-0.395-0.878-0.879V3.988z M19.55,0H5.384C2.415,0,0,2.416,0,5.385v14.168c0,2.969,2.415,5.385,5.384,5.385h14.167
		c2.97,0,5.384-2.416,5.384-5.385V5.383C24.934,2.416,22.519,0,19.55,0z"/>
	<path d="M18.202,13c0,3.168-2.568,5.734-5.735,5.734c-3.167,0-5.735-2.566-5.735-5.734c0-3.166,2.568-5.736,5.735-5.736
		C15.634,7.264,18.202,9.834,18.202,13"/>
</g>
</svg>
