<?xml version="1.0" encoding="iso-8859-1"?>
<!-- Generator: Adobe Illustrator 16.0.0, SVG Export Plug-In . SVG Version: 6.00 Build 0)  -->
<!DOCTYPE svg PUBLIC "-//W3C//DTD SVG 1.1//EN" "http://www.w3.org/Graphics/SVG/1.1/DTD/svg11.dtd">
<svg version="1.1" id="Layer_1" xmlns="http://www.w3.org/2000/svg" xmlns:xlink="http://www.w3.org/1999/xlink" x="0px" y="0px"
	 width="38.34px" height="13.864px" viewBox="0 0 38.34 13.864" style="enable-background:new 0 0 38.34 13.864;"
	 xml:space="preserve">
<g>
	<polygon style="fill:#70CDDD;" points="0,13.652 0,0.271 2.243,0.271 2.243,11.524 7.212,11.524 7.212,13.652 	"/>
	<path style="fill:#70CDDD;" d="M16.064,11.021c0.059,0.678,0.329,0.852,0.889,0.986l-0.134,1.856c-1.373,0-2.031-0.252-2.611-0.676
		c0,0-1.354,0.676-2.823,0.676c-1.682,0-2.959-1.218-2.959-3.094c0-1.991,1.257-2.803,3.171-2.939l2.262-0.192v-0.62
		c0-0.812-0.386-1.218-1.121-1.218c-1.739,0-3.751,0.194-3.751,0.194L8.91,4.177c0,0,2.514-0.406,3.945-0.406
		c2.068,0,3.209,0.89,3.209,3.269V11.021z M11.849,9.397c-0.812,0.039-1.198,0.58-1.198,1.315c0,0.773,0.406,1.295,1.044,1.295
		c1.024,0,2.165-0.386,2.165-0.386v-2.34L11.849,9.397z"/>
	<path style="fill:#70CDDD;" d="M26.615,8.702c0,3.597-1.354,5.162-4.641,5.162c-1.006,0-3.48-0.231-3.48-0.231V0h2.205v4.273
		c0,0,1.198-0.503,2.223-0.503C25.397,3.771,26.615,5.512,26.615,8.702 M24.372,8.702c0-1.857-0.58-2.939-1.74-2.939
		c-1.006,0-1.934,0.31-1.934,0.31v5.781c0,0,0.889,0.078,1.256,0.078C23.946,11.932,24.372,10.559,24.372,8.702"/>
	<path style="fill:#70CDDD;" d="M27.807,0.251h2.203v2.302h-2.203V0.251z M27.807,4.003h2.203v9.649h-2.203V4.003z"/>
	<path style="fill:#70CDDD;" d="M38.34,4.08l-0.077,1.875c0,0-1.412-0.154-2.147-0.154c-1.739,0-2.339,0.852-2.339,2.901
		c0,2.128,0.561,3.151,2.359,3.151c0.735,0,2.147-0.135,2.147-0.135l0.058,1.876c0,0-1.547,0.27-2.882,0.27
		c-2.785,0-3.926-1.682-3.926-5.162c0-3.25,1.258-4.932,3.985-4.932C36.871,3.771,38.34,4.08,38.34,4.08"/>
</g>
</svg>
